# Blender 4.1.1
# www.blender.org
mtllib ModeloLinterna.mtl
o LinternaCuerpo
v 0.025176 8.961620 -1.011830
v 0.541210 0.038380 -0.855293
v 0.488896 8.961620 -0.877298
v 0.855293 8.961620 -0.541210
v 0.877298 0.038380 -0.488896
v 1.011830 0.038380 -0.025176
v 1.011830 8.961620 0.025176
v 0.855293 0.038380 0.541210
v 0.877298 8.961620 0.488896
v 0.541210 8.961620 0.855293
v 0.488896 0.038380 0.877298
v 0.025176 0.038380 1.011830
v -0.025176 8.961620 1.011830
v -0.541210 0.038380 0.855293
v -0.488896 8.961620 0.877298
v -0.855293 8.961620 0.541210
v -0.877298 0.038380 0.488896
v -1.011830 0.038380 0.025176
v -1.011830 8.961620 -0.025176
v -0.855293 0.038380 -0.541210
v -0.877298 8.961620 -0.488896
v -0.541210 8.961620 -0.855293
v -0.488896 0.038380 -0.877298
v -0.025176 0.038380 -1.011830
vn 0.7369 -0.0021 -0.6760
vn 0.2719 -0.0012 -0.9623
vn 0.6760 -0.0021 0.7369
vn -0.7369 -0.0021 0.6760
vn -0.6760 -0.0021 -0.7369
vn 0.9623 0.0012 -0.2719
vn 0.6760 0.0021 -0.7369
vn 0.9623 -0.0012 0.2719
vn 0.2719 0.0012 0.9623
vn 0.7369 0.0021 0.6760
vn -0.2719 -0.0012 0.9623
vn -0.9623 0.0012 0.2719
vn -0.6760 0.0021 0.7369
vn -0.9623 -0.0012 -0.2719
vn -0.7369 0.0021 -0.6760
vn -0.2719 0.0012 -0.9623
vn -0.0000 1.0000 -0.0000
vn -0.0000 -1.0000 -0.0000
vt 0.839652 1.000000
vt 0.830933 0.500000
vt 0.910348 0.500000
vt 0.987183 0.500000
vt 0.988143 1.000000
vt 0.919067 1.000000
vt 0.589652 1.000000
vt 0.580933 0.500000
vt 0.660348 0.500000
vt 0.339652 1.000000
vt 0.330933 0.500000
vt 0.410348 0.500000
vt 0.089652 1.000000
vt 0.080933 0.500000
vt 0.160348 0.500000
vt 0.753903 0.500000
vt 0.746097 1.000000
vt 0.669067 1.000000
vt 0.503903 0.500000
vt 0.496097 1.000000
vt 0.419067 1.000000
vt 0.253903 0.500000
vt 0.246097 1.000000
vt 0.169067 1.000000
vt 0.011857 0.500000
vt 0.012817 1.000000
vt 0.458649 0.133682
vt 0.487077 0.244152
vt 0.450248 0.376418
vt 0.366318 0.458649
vt 0.255848 0.487077
vt 0.123582 0.450248
vt 0.041351 0.366318
vt 0.012924 0.255848
vt 0.049752 0.123582
vt 0.133682 0.041351
vt 0.244152 0.012924
vt 0.376418 0.049752
vt 0.755848 0.012924
vt 0.623582 0.049752
vt 0.541351 0.133682
vt 0.512923 0.244152
vt 0.549752 0.376418
vt 0.633682 0.458649
vt 0.744152 0.487077
vt 0.876418 0.450248
vt 0.958649 0.366318
vt 0.987076 0.255848
vt 0.950248 0.123582
vt 0.866318 0.041351
s 0
usemtl TexturaLinterna
f 4/1/1 5/2/1 2/3/1
f 2/3/2 24/4/2 1/5/2 3/6/2
f 10/7/3 11/8/3 8/9/3
f 16/10/4 17/11/4 14/12/4
f 22/13/5 23/14/5 20/15/5
f 6/16/6 5/2/6 4/1/6 7/17/6
f 3/6/7 4/1/7 2/3/7
f 8/9/8 6/16/8 7/17/8 9/18/8
f 12/19/9 11/8/9 10/7/9 13/20/9
f 9/18/10 10/7/10 8/9/10
f 14/12/11 12/19/11 13/20/11 15/21/11
f 18/22/12 17/11/12 16/10/12 19/23/12
f 15/21/13 16/10/13 14/12/13
f 20/15/14 18/22/14 19/23/14 21/24/14
f 21/24/15 22/13/15 20/15/15
f 24/25/16 23/14/16 22/13/16 1/26/16
f 9/27/17 7/28/17 4/29/17 3/30/17 1/31/17 22/32/17 21/33/17 19/34/17 16/35/17 15/36/17 13/37/17 10/38/17
f 12/39/18 14/40/18 17/41/18 18/42/18 20/43/18 23/44/18 24/45/18 2/46/18 5/47/18 6/48/18 8/49/18 11/50/18
o LinternaCuerpo.001
v 0.096731 11.821723 -0.997026
v 0.634188 11.821478 -0.784485
v 0.937535 11.821767 -0.307040
v 0.982125 11.821723 0.098199
v 0.823223 11.821701 0.558406
v 0.402593 11.821598 0.921188
v -0.096731 11.821723 0.997026
v -0.550062 11.821710 0.835716
v -0.907420 11.821598 0.408701
v -0.982125 11.821723 -0.098199
v -0.772752 11.821447 -0.643803
v -0.302451 11.821767 -0.951760
v 0.222362 9.270051 -1.303520
v 0.024802 8.865296 -1.011943
v 0.481687 8.865417 -0.877476
v 0.802759 9.270638 -1.029298
v 1.191176 9.270051 -0.536504
v 0.842474 8.865092 -0.541187
v 1.284038 9.270051 0.225736
v 0.996807 8.865280 0.025178
v 0.864361 8.865417 0.488995
v 1.013915 9.270638 0.814939
v 0.528486 9.270051 1.209249
v 0.533099 8.865092 0.855256
v -0.222362 9.270051 1.303520
v -0.024802 8.865296 1.011943
v -0.481687 8.865417 0.877476
v -0.802759 9.270638 1.029298
v -1.191176 9.270051 0.536504
v -0.842474 8.865092 0.541187
v -1.284038 9.270051 -0.225736
v -0.996807 8.865280 -0.025178
v -0.864361 8.865417 -0.488995
v -1.013915 9.270638 -0.814939
v -0.528486 9.270051 -1.209249
v -0.533099 8.865092 -0.855256
v 0.032419 12.334532 -1.322720
v 0.629560 12.334532 -1.146852
v 1.101375 12.334532 -0.707500
v 1.302951 12.334532 0.032911
v 1.129711 12.334532 0.639112
v 0.696926 12.334532 1.118086
v -0.032419 12.334532 1.322720
v -0.629560 12.334532 1.146852
v -1.101375 12.334532 0.707500
v -1.302951 12.334532 -0.032911
v -1.129711 12.334532 -0.639112
v -0.696926 12.334532 -1.118086
v -0.344851 12.334141 -1.154069
v 0.340439 12.334466 -1.139304
v 0.758418 12.334477 -0.905304
v 1.136821 12.334141 -0.350083
v 1.122277 12.334466 0.345604
v 0.891774 12.334477 0.769925
v 0.344851 12.334141 1.154069
v -0.340439 12.334466 1.139304
v -0.758418 12.334477 0.905304
v -1.136821 12.334141 0.350083
v -1.122277 12.334466 -0.345604
v -0.891774 12.334477 -0.769925
vn -0.1246 -0.0139 -0.9921
vn 0.4272 -0.0105 -0.9041
vn 0.7853 -0.0115 -0.6190
vn 0.9926 -0.0137 -0.1209
vn 0.9090 -0.0104 0.4167
vn 0.6305 -0.0116 0.7761
vn 0.1246 -0.0139 0.9921
vn -0.4272 -0.0105 0.9041
vn -0.7853 -0.0115 0.6190
vn -0.9926 -0.0137 0.1209
vn -0.9090 -0.0104 -0.4167
vn -0.6305 -0.0116 -0.7761
vn 0.3541 -0.5609 -0.7483
vn 0.6525 -0.5559 -0.5150
vn 0.8344 -0.5417 -0.1017
vn 0.7546 -0.5572 0.3465
vn 0.5240 -0.5572 0.6442
vn 0.1043 -0.5473 0.8304
vn -0.3541 -0.5609 0.7483
vn -0.6525 -0.5559 0.5150
vn -0.8344 -0.5417 0.1017
vn -0.7546 -0.5572 -0.3465
vn -0.5240 -0.5572 -0.6442
vn -0.1043 -0.5473 -0.8304
vn -0.0005 1.0000 0.0012
vn -0.0002 1.0000 0.0003
vn -0.0008 1.0000 0.0012
vn -0.0012 1.0000 -0.0005
vn -0.0003 1.0000 -0.0002
vn -0.0012 1.0000 -0.0008
vn 0.0005 1.0000 -0.0012
vn 0.0002 1.0000 -0.0003
vn 0.0008 1.0000 -0.0012
vn 0.0012 1.0000 0.0005
vn 0.0003 1.0000 0.0002
vn 0.0012 1.0000 0.0008
vn -0.0208 0.2765 0.9608
vn -0.7908 0.3498 0.5022
vn -0.9242 0.3680 0.1017
vn -0.9619 0.2727 -0.0202
vn -0.1377 0.3968 -0.9075
vn 0.0208 0.2765 -0.9608
vn 0.9101 0.3920 -0.1340
vn 0.9619 0.2727 0.0202
vn 0.5126 0.3517 0.7833
vn 0.1046 0.3727 0.9220
vn 0.6814 0.0104 -0.7318
vn 0.9648 0.0136 -0.2627
vn 0.9614 0.0114 0.2748
vn 0.7419 0.0104 0.6704
vn 0.2701 0.0138 0.9627
vn -0.2825 0.0115 0.9592
vn -0.6814 0.0104 0.7318
vn -0.9648 0.0136 0.2627
vn -0.9614 0.0114 -0.2748
vn -0.7419 0.0104 -0.6704
vn -0.2701 0.0138 -0.9627
vn -0.0000 1.0000 -0.0000
vn 0.2825 0.0115 -0.9592
vn 0.2175 -0.6382 -0.7385
vn 0.5285 -0.6314 -0.5676
vn 0.7433 -0.6377 -0.2023
vn 0.7441 -0.6334 0.2127
vn 0.5757 -0.6309 0.5201
vn 0.2070 -0.6426 0.7378
vn -0.2175 -0.6382 0.7385
vn -0.5285 -0.6314 0.5676
vn -0.7433 -0.6377 0.2023
vn -0.7441 -0.6334 -0.2127
vn -0.5757 -0.6309 -0.5201
vn -0.2070 -0.6426 -0.7378
vn -0.0000 -1.0000 -0.0000
vn -0.5770 0.3299 -0.7472
vn -0.0002 1.0000 0.0007
vn -0.0004 1.0000 0.0004
vn -0.0063 1.0000 0.0017
vn -0.0007 1.0000 -0.0002
vn -0.0005 1.0000 -0.0004
vn -0.0017 1.0000 -0.0062
vn 0.0002 1.0000 -0.0007
vn 0.0004 1.0000 -0.0004
vn 0.0063 1.0000 -0.0017
vn 0.0007 1.0000 0.0002
vn 0.0005 1.0000 0.0004
vn 0.0017 1.0000 0.0062
vn -0.3373 0.3972 0.8535
vn -0.4647 0.3081 0.8301
vn -0.7840 0.3157 0.5345
vn -0.8728 0.3840 -0.3013
vn -0.8383 0.2999 -0.4554
vn 0.7558 0.3287 -0.5663
vn 0.3090 0.3878 -0.8684
vn 0.4657 0.3021 -0.8318
vn 0.8584 0.3935 0.3292
vn 0.8366 0.3058 0.4545
vn 0.5452 0.3172 0.7760
vt 0.012817 1.000000
vt 0.000000 0.558431
vt 0.066407 0.558431
vt 0.919067 1.000000
vt 0.893432 0.558431
vt 0.972657 0.558431
vt 0.839652 1.000000
vt 0.816407 0.558431
vt 0.746097 1.000000
vt 0.722657 0.558431
vt 0.669067 1.000000
vt 0.643433 0.558431
vt 0.589652 1.000000
vt 0.566407 0.558431
vt 0.496097 1.000000
vt 0.472657 0.558431
vt 0.419067 1.000000
vt 0.393433 0.558431
vt 0.339652 1.000000
vt 0.316407 0.558431
vt 0.246097 1.000000
vt 0.222657 0.558431
vt 0.169067 1.000000
vt 0.143433 0.558431
vt 0.089652 1.000000
vt 0.898254 0.437311
vt 0.839000 0.409647
vt 0.790492 0.483572
vt 0.966704 0.346098
vt 0.903097 0.346910
vt 0.983572 0.209508
vt 0.931136 0.245522
vt 0.937311 0.101746
vt 0.909647 0.161000
vt 0.846098 0.033296
vt 0.846910 0.096903
vt 0.709508 0.016428
vt 0.745522 0.068864
vt 0.601746 0.062689
vt 0.661000 0.090353
vt 0.533296 0.153902
vt 0.596903 0.153090
vt 0.516428 0.290492
vt 0.568864 0.254478
vt 0.562689 0.398254
vt 0.590353 0.339000
vt 0.653902 0.466704
vt 0.653090 0.403097
vt 0.754478 0.431136
vt 0.312760 0.456892
vt 0.255848 0.487077
vt 0.188288 0.453278
vt 0.390115 0.414699
vt 0.366318 0.458649
vt 0.453278 0.311712
vt 0.450248 0.376418
vt 0.456893 0.187240
vt 0.487077 0.244152
vt 0.414699 0.109885
vt 0.458649 0.133682
vt 0.311712 0.046722
vt 0.376418 0.049752
vt 0.187240 0.043107
vt 0.244152 0.012924
vt 0.109885 0.085301
vt 0.133682 0.041351
vt 0.046722 0.188288
vt 0.049752 0.123582
vt 0.043107 0.312760
vt 0.012924 0.255848
vt 0.085301 0.390115
vt 0.041351 0.366318
vt 0.123582 0.450248
vt 0.267833 0.431057
vt 0.423165 0.305894
vt 0.363438 0.388164
vt 0.431057 0.232167
vt 0.232167 0.068943
vt 0.323327 0.085190
vt 0.068943 0.267833
vt 0.085190 0.176673
vt 0.194106 0.423165
vt 0.111836 0.363439
vt 0.400110 0.149810
vt 0.149810 0.099890
vt 0.988143 1.000000
s 0
usemtl TexturaLinterna.001
f 61/51/19 37/52/19 59/53/19
f 62/54/20 40/55/20 37/56/20
f 63/57/21 41/58/21 40/55/21
f 64/59/22 43/60/22 41/58/22
f 65/61/23 46/62/23 43/60/23
f 66/63/24 47/64/24 46/62/24
f 67/65/25 49/66/25 47/64/25
f 68/67/26 52/68/26 49/66/26
f 69/69/27 53/70/27 52/68/27
f 70/71/28 55/72/28 53/70/28
f 71/73/29 58/74/29 55/72/29
f 72/75/30 59/53/30 58/74/30
f 40/76/31 39/77/31 37/78/31
f 41/79/32 42/80/32 40/76/32
f 43/81/33 44/82/33 41/79/33
f 46/83/34 45/84/34 43/81/34
f 47/85/35 48/86/35 46/83/35
f 49/87/36 50/88/36 47/85/36
f 52/89/37 51/90/37 49/87/37
f 53/91/38 54/92/38 52/89/38
f 55/93/39 56/94/39 53/91/39
f 58/95/40 57/96/40 55/93/40
f 59/97/41 60/98/41 58/95/41
f 37/78/42 38/99/42 59/97/42
f 74/100/43 61/101/43 73/102/43
f 75/103/44 62/104/44 74/100/44
f 76/105/45 63/106/45 75/103/45
f 77/107/46 64/108/46 76/105/46
f 78/109/47 65/110/47 77/107/47
f 79/111/48 66/112/48 78/109/48
f 80/113/49 67/114/49 79/111/49
f 81/115/50 68/116/50 80/113/50
f 82/117/51 69/118/51 81/115/51
f 83/119/52 70/120/52 82/117/52
f 84/121/53 71/122/53 83/119/53
f 73/102/54 72/123/54 84/121/54
f 25/124/55 74/100/55 73/102/55
f 27/125/56 76/105/56 26/126/56
f 28/127/57 76/105/57 27/125/57
f 28/127/58 77/107/58 76/105/58
f 31/128/59 79/111/59 30/129/59
f 31/128/60 80/113/60 79/111/60
f 34/130/61 82/117/61 33/131/61
f 34/130/62 83/119/62 82/117/62
f 36/132/63 73/102/63 35/133/63
f 25/124/64 73/102/64 36/132/64
f 62/54/65 63/57/65 40/55/65
f 63/57/66 64/59/66 41/58/66
f 64/59/67 65/61/67 43/60/67
f 65/61/68 66/63/68 46/62/68
f 66/63/69 67/65/69 47/64/69
f 67/65/70 68/67/70 49/66/70
f 68/67/71 69/69/71 52/68/71
f 69/69/72 70/71/72 53/70/72
f 70/71/73 71/73/73 55/72/73
f 71/73/74 72/75/74 58/74/74
f 72/75/75 61/51/75 59/53/75
f 30/129/76 29/134/76 28/127/76 27/125/76 26/126/76 25/124/76 36/132/76 35/133/76 34/130/76 33/131/76 32/135/76 31/128/76
f 61/136/77 62/54/77 37/56/77
f 37/78/78 39/77/78 38/99/78
f 40/76/79 42/80/79 39/77/79
f 41/79/80 44/82/80 42/80/80
f 43/81/81 45/84/81 44/82/81
f 46/83/82 48/86/82 45/84/82
f 47/85/83 50/88/83 48/86/83
f 49/87/84 51/90/84 50/88/84
f 52/89/85 54/92/85 51/90/85
f 53/91/86 56/94/86 54/92/86
f 55/93/87 57/96/87 56/94/87
f 58/95/88 60/98/88 57/96/88
f 59/97/89 38/99/89 60/98/89
f 50/88/90 51/90/90 54/92/90 56/94/90 57/96/90 60/98/90 38/99/90 39/77/90 42/80/90 44/82/90 45/84/90 48/86/90
f 78/109/91 29/134/91 30/129/91 79/111/91
f 74/100/92 62/104/92 61/101/92
f 75/103/93 63/106/93 62/104/93
f 76/105/94 64/108/94 63/106/94
f 77/107/95 65/110/95 64/108/95
f 78/109/96 66/112/96 65/110/96
f 79/111/97 67/114/97 66/112/97
f 80/113/98 68/116/98 67/114/98
f 81/115/99 69/118/99 68/116/99
f 82/117/100 70/120/100 69/118/100
f 83/119/101 71/122/101 70/120/101
f 84/121/102 72/123/102 71/122/102
f 73/102/103 61/101/103 72/123/103
f 25/124/104 26/126/104 74/100/104
f 26/126/105 75/103/105 74/100/105
f 26/126/106 76/105/106 75/103/106
f 28/127/107 29/134/107 77/107/107
f 29/134/108 78/109/108 77/107/108
f 81/115/109 32/135/109 33/131/109 82/117/109
f 31/128/110 32/135/110 80/113/110
f 32/135/111 81/115/111 80/113/111
f 34/130/112 35/133/112 83/119/112
f 35/133/113 84/121/113 83/119/113
f 35/133/114 73/102/114 84/121/114
o BotonLinterna
v -0.460093 5.000000 1.272961
v -0.460093 7.000000 1.272961
v -0.460093 5.000000 0.527038
v -0.460093 7.000000 0.527038
v 0.460093 5.000000 1.272961
v 0.460093 7.000000 1.272961
v 0.460093 5.000000 0.527038
v 0.460093 7.000000 0.527038
vn -1.0000 -0.0000 -0.0000
vn -0.0000 -0.0000 -1.0000
vn 1.0000 -0.0000 -0.0000
vn -0.0000 -0.0000 1.0000
vn -0.0000 -1.0000 -0.0000
vn -0.0000 1.0000 -0.0000
vt 0.375000 0.000000
vt 0.625000 0.000000
vt 0.625000 0.250000
vt 0.375000 0.250000
vt 0.625000 0.500000
vt 0.375000 0.500000
vt 0.625000 0.750000
vt 0.375000 0.750000
vt 0.625000 1.000000
vt 0.375000 1.000000
vt 0.125000 0.500000
vt 0.125000 0.750000
vt 0.875000 0.500000
vt 0.875000 0.750000
s 0
usemtl BotonLinterna
f 85/137/115 86/138/115 88/139/115 87/140/115
f 87/140/116 88/139/116 92/141/116 91/142/116
f 91/142/117 92/141/117 90/143/117 89/144/117
f 89/144/118 90/143/118 86/145/118 85/146/118
f 87/147/119 91/142/119 89/144/119 85/148/119
f 92/141/120 88/149/120 86/150/120 90/143/120
