# Blender 4.1.1
# www.blender.org
mtllib tachoadentro.mtl
o Circle.001
v 0.000000 1.380000 -0.851078
v -0.809424 1.380000 -0.262998
v -0.500251 1.380000 0.688537
v 0.500251 1.380000 0.688537
v 0.809424 1.380000 -0.262998
v -0.726981 1.380000 -0.236210
v 0.000000 1.380000 -0.764393
v -0.449299 1.380000 0.618407
v 0.449299 1.380000 0.618407
v 0.726981 1.380000 -0.236210
v 0.000000 1.190000 -0.800000
v -0.760845 1.190000 -0.247214
v -0.470228 1.190000 0.647214
v 0.470228 1.190000 0.647214
v 0.760845 1.190000 -0.247214
v -0.731790 1.190000 -0.237773
v 0.000000 1.190000 -0.769450
v -0.452271 1.190000 0.622498
v 0.452271 1.190000 0.622498
v 0.731790 1.190000 -0.237773
v 0.000000 1.080000 -0.800000
v -0.760845 1.080000 -0.247214
v -0.470228 1.080000 0.647214
v 0.470228 1.080000 0.647214
v 0.760845 1.080000 -0.247214
v -0.731985 1.080000 -0.237836
v 0.000000 1.080000 -0.769655
v -0.452392 1.080000 0.622664
v 0.452392 1.080000 0.622664
v 0.731985 1.080000 -0.237836
v 0.000000 1.170568 -0.800000
v -0.760845 1.170568 -0.247214
v -0.470228 1.170568 0.647214
v 0.470228 1.170568 0.647214
v 0.760845 1.170568 -0.247214
v 0.000000 1.062795 -0.800000
v -0.760845 1.062795 -0.247214
v -0.470228 1.062795 0.647214
v 0.470228 1.062795 0.647214
v 0.760845 1.062795 -0.247214
v 0.000000 1.252247 -0.851078
v -0.809424 1.252247 -0.262998
v -0.500251 1.252247 0.688537
v 0.500251 1.252247 0.688537
v 0.809424 1.252247 -0.262998
v 0.000000 -0.256173 -0.770000
v -0.732314 -0.256173 -0.237943
v -0.452595 -0.256173 0.622943
v 0.452595 -0.256173 0.622943
v 0.732314 -0.256173 -0.237943
v 0.000000 1.377523 -0.770000
v -0.732314 1.377523 -0.237943
v -0.452595 1.377523 0.622943
v 0.452595 1.377523 0.622943
v 0.732314 1.377523 -0.237943
v 0.287672 1.129968 -0.557715
v 0.319158 1.134129 -0.671274
v 0.638366 0.867239 -0.499926
v 0.781874 0.704567 -0.240230
v 0.666841 0.677352 0.226068
v 0.497026 0.696476 0.652710
v 0.246396 0.854058 0.740573
v -0.136311 1.132169 0.722269
v -0.103852 1.132175 0.623527
v -0.067170 1.105377 0.626650
v -0.085979 1.105596 0.682916
v 0.257535 0.858158 0.697103
v 0.470638 0.723890 0.623601
v 0.638459 0.701573 0.208732
v 0.740168 0.734558 -0.241738
v 0.612539 0.876956 -0.462964
v 0.338285 1.107164 -0.614051
v 0.320758 1.101285 -0.535590
v 0.267534 1.101873 -0.564591
v 0.299020 1.106034 -0.678150
v 0.618228 0.839144 -0.506802
v 0.761736 0.676472 -0.247106
v 0.646702 0.649257 0.219192
v 0.476888 0.668381 0.645833
v 0.226258 0.825963 0.733696
v -0.156450 1.104074 0.715393
v -0.123990 1.104080 0.616651
v -0.087308 1.077282 0.619774
v -0.106118 1.077501 0.676039
v 0.237397 0.830063 0.690227
v 0.471743 0.695795 0.616725
v 0.639565 0.673478 0.201856
v 0.741274 0.706463 -0.248614
v 0.592400 0.848861 -0.469840
v 0.318146 1.079069 -0.620927
v 0.300620 1.073190 -0.542466
v -0.452595 0.285796 0.622943
v -0.732314 0.285796 -0.237943
v 0.000000 0.285796 -0.770000
v 0.732314 0.285796 -0.237943
v 0.452595 0.285796 0.622943
v 0.197866 0.539179 -0.193477
v 0.298707 0.539179 0.193634
v -0.175096 0.539179 0.300800
v -0.403104 0.539179 -0.058349
v -0.054533 0.539179 -0.331934
vn 0.9511 -0.0000 0.3090
vn -0.0000 1.0000 -0.0000
vn -0.9511 -0.0000 0.3090
vn 0.5878 -0.0000 -0.8090
vn -0.0000 -0.0000 1.0000
vn -0.5878 -0.0000 -0.8090
vn -0.0000 -1.0000 -0.0000
vn -0.5714 -0.7972 -0.1951
vn 0.6699 0.7074 0.2254
vn -0.7056 0.3558 0.6128
vn 0.4736 -0.1261 -0.8717
vn -0.1407 -0.1391 0.9802
vn -0.7838 0.6005 -0.1583
vn 0.1433 -0.2808 0.9490
vn -0.7319 0.6025 -0.3183
vn 0.9245 -0.0559 0.3770
vn -0.1272 0.3209 -0.9385
vn 0.9756 -0.0152 0.2192
vn 0.1454 0.1356 -0.9800
vn 0.8016 -0.1287 -0.5838
vn 0.7573 -0.6038 0.2489
vn 0.7746 -0.6024 0.1927
vn 0.4255 -0.0845 -0.9010
vn -0.1695 -0.1180 0.9784
vn -0.4193 0.0792 0.9044
vn -0.7902 0.5986 -0.1316
vn -0.7553 0.6038 -0.2549
vn -0.5872 0.7717 0.2444
vn 0.3209 0.8216 -0.4712
vn 0.0438 0.8249 0.5635
vn 0.5614 0.8236 0.0805
vn -0.3642 0.7929 -0.4886
vt 0.996965 0.984777
vt 1.016324 0.003675
vt 0.445247 0.000000
vt 0.464605 0.984777
vt 0.000000 0.000000
vt 0.701747 0.999475
vt 0.004840 0.999475
vt 0.007259 0.235171
vt 0.694488 0.227821
vt 0.002420 -0.011024
vt -0.007259 1.003149
vt 0.984866 0.973753
vt 0.999385 0.705512
vt -0.004840 0.705512
vt 0.002420 1.003149
vt 0.433148 0.973753
vt 0.002420 0.992126
vt 0.004840 0.635695
vt 0.435567 0.598950
vt 0.996945 1.001652
vt 0.994849 0.000423
vt 0.005711 0.018073
vt -0.000387 0.990295
vt 1.001584 0.993569
vt -0.002641 1.004593
vt 0.007039 0.005118
vt 0.999164 0.001444
vt 1.011484 0.995800
vt 0.004840 0.988451
vt 0.012099 0.117585
vt 0.989706 0.014698
vt 0.999385 0.988451
vt 0.996965 0.007349
vt 0.004840 0.014698
vt 0.004840 0.995800
vt 0.984866 0.011024
vt 0.994545 0.992126
vt 0.012099 0.992126
vt 0.000000 0.007349
vt 0.916937 0.736221
vt 0.939654 0.496772
vt 0.920357 0.273342
vt 0.788825 0.192465
vt 0.560022 0.135647
vt 0.560017 0.187617
vt 0.582385 0.191862
vt 0.582202 0.162200
vt 0.788736 0.209112
vt 0.900809 0.277308
vt 0.919437 0.500573
vt 0.891904 0.730423
vt 0.773046 0.815567
vt 0.580893 0.844497
vt 0.585801 0.804492
vt 0.561859 0.809834
vt 0.558386 0.868690
vt 0.781157 0.837158
vt 0.994545 0.992126
vt 0.996965 0.011024
vt 0.012099 0.022047
vt -0.002420 0.984776
vt 0.996965 0.988451
vt 0.996965 0.003675
vt 0.016939 0.014698
vt 0.002420 0.984776
vt 1.001805 0.995800
vt 1.001805 0.022047
vt 0.285539 -0.007349
vt 0.331515 0.984776
vt 0.992861 0.981524
vt 1.000120 0.011446
vt 0.007995 0.015121
vt 0.012835 0.981524
vt 0.997494 0.005862
vt 0.996951 0.999166
vt 0.008604 0.995108
vt 0.007336 0.010783
vt 1.004371 0.992485
vt 0.968713 0.011886
vt 0.047544 0.005943
vt 0.017829 0.992485
vt 0.800693 0.784042
vt 0.209647 0.776921
vt 0.110682 0.344030
vt 0.665730 0.065729
vt 0.917553 0.484292
vt 0.992485 0.962770
vt 1.004371 0.011886
vt 0.029715 -0.011886
vt 0.041601 0.998428
vt 0.992485 0.992485
vt 0.986542 -0.005943
vt 0.035658 0.011886
vt 0.011886 0.998428
vt 0.992485 0.998428
vt 0.998428 0.011886
vt 0.624017 0.398183
vt 0.000000 0.891453
vt 0.974656 0.974656
vt 0.956827 -0.005943
vt 0.136690 -0.017829
vt 0.011886 0.938998
s 0
usemtl TachoTextura
f 4/1/1 44/2/1 45/3/1 5/4/1
f 6/5/2 7/5/2 1/5/2 2/5/2
f 8/5/2 6/5/2 2/5/2 3/5/2
f 9/5/2 8/5/2 3/5/2 4/5/2
f 10/5/2 9/5/2 4/5/2 5/5/2
f 7/5/2 10/5/2 5/5/2 1/5/2
f 2/6/3 42/7/3 43/8/3 3/9/3
f 5/4/4 45/3/4 41/10/4 1/11/4
f 3/12/5 43/13/5 44/14/5 4/15/5
f 16/5/2 17/5/2 11/5/2 12/5/2
f 18/5/2 16/5/2 12/5/2 13/5/2
f 19/5/2 18/5/2 13/5/2 14/5/2
f 20/5/2 19/5/2 14/5/2 15/5/2
f 17/5/2 20/5/2 15/5/2 11/5/2
f 11/5/4 15/5/4 35/5/4 31/5/4
f 26/5/2 27/5/2 21/5/2 22/5/2
f 28/5/2 26/5/2 22/5/2 23/5/2
f 29/5/2 28/5/2 23/5/2 24/5/2
f 30/5/2 29/5/2 24/5/2 25/5/2
f 27/5/2 30/5/2 25/5/2 21/5/2
f 14/5/5 13/5/5 33/5/5 34/5/5
f 12/5/6 11/5/6 31/5/6 32/5/6
f 15/5/1 14/5/1 34/5/1 35/5/1
f 13/5/3 12/5/3 32/5/3 33/5/3
f 25/5/1 24/5/1 39/5/1 40/5/1
f 23/5/3 22/5/3 37/5/3 38/5/3
f 21/5/4 25/5/4 40/5/4 36/5/4
f 24/5/5 23/5/5 38/5/5 39/5/5
f 22/5/6 21/5/6 36/5/6 37/5/6
f 1/16/6 41/17/6 42/18/6 2/19/6
f 47/5/7 46/5/7 50/5/7 49/5/7 48/5/7
f 96/20/5 54/21/5 53/22/5 92/23/5
f 95/24/1 55/25/1 54/26/1 96/27/1
f 93/28/3 92/29/3 53/30/3 52/31/3
f 94/32/4 51/33/4 55/34/4 95/35/4
f 93/36/6 52/37/6 51/38/6 94/39/6
f 56/55/11 73/54/11 91/54/11 74/55/11
f 67/48/12 66/47/12 84/47/12 85/48/12
f 69/50/16 68/49/16 86/49/16 87/50/16
f 70/51/18 69/50/18 87/50/18 88/51/18
f 72/53/23 71/52/23 89/52/23 90/53/23
f 65/46/24 64/45/24 82/45/24 83/46/24
f 73/54/26 72/53/26 90/53/26 91/54/26
f 47/58/6 93/59/6 94/60/6 46/61/6
f 46/62/4 94/63/4 95/64/4 50/65/4
f 47/66/3 48/67/3 92/68/3 93/69/3
f 50/70/1 95/71/1 96/72/1 49/73/1
f 49/74/5 96/75/5 92/76/5 48/77/5
usemtl barita
f 59/40/8 60/41/8 61/42/8 62/43/8 63/44/8 64/45/8 65/46/8 66/47/8 67/48/8 68/49/8 69/50/8 70/51/8 71/52/8 72/53/8 73/54/8 56/55/8 57/56/8 58/57/8
f 77/40/9 76/57/9 75/56/9 74/55/9 91/54/9 90/53/9 89/52/9 88/51/9 87/50/9 86/49/9 85/48/9 84/47/9 83/46/9 82/45/9 81/44/9 80/43/9 79/42/9 78/41/9
f 59/40/10 58/57/10 76/57/10 77/40/10
f 60/41/13 59/40/13 77/40/13 78/41/13
f 68/49/14 67/48/14 85/48/14 86/49/14
f 61/42/15 60/41/15 78/41/15 79/42/15
f 62/43/17 61/42/17 79/42/17 80/43/17
f 63/44/19 62/43/19 80/43/19 81/44/19
f 71/52/20 70/51/20 88/51/20 89/52/20
f 64/45/21 63/44/21 81/44/21 82/45/21
f 57/56/22 56/55/22 74/55/22 75/56/22
f 58/57/25 57/56/25 75/56/25 76/57/25
f 66/47/27 65/46/27 83/46/27 84/47/27
usemtl Basura
f 93/78/28 92/79/28 99/80/28 100/81/28
f 100/82/2 99/83/2 98/84/2 97/85/2 101/86/2
f 101/87/29 97/88/29 95/89/29 94/90/29
f 99/91/30 92/92/30 96/93/30 98/94/30
f 95/95/31 97/96/31 98/97/31 96/98/31
f 94/99/32 93/100/32 100/101/32 101/102/32
