# Blender 4.1.1
# www.blender.org
mtllib Cajoneras.mtl
o Cube.207
v -2.866145 2.217186 7.075066
v -1.937458 2.217186 7.075066
v -2.866145 0.945129 7.075066
v -1.937458 0.945129 7.075066
v -2.866145 2.217186 7.006605
v -1.937458 2.217186 7.006605
v -2.866145 0.945129 7.006605
v -1.937458 0.945129 7.006605
v -2.727381 1.407030 6.945754
v -2.727381 1.733849 6.945754
v -2.727381 1.407030 7.013386
v -2.727381 1.733849 7.013386
v -2.795017 1.407030 6.945754
v -2.795017 1.733849 6.945754
v -2.795017 1.407030 7.013386
v -2.795017 1.733849 7.013386
vn -0.0000 -0.0000 1.0000
vn -0.0000 -0.0000 -1.0000
vn -1.0000 -0.0000 -0.0000
vn -0.0000 -1.0000 -0.0000
vn 1.0000 -0.0000 -0.0000
vn -0.0000 1.0000 -0.0000
vt 1.709842 0.130571
vt 1.161180 0.882093
vt 1.709842 0.882093
vt 1.709842 0.882093
vt 0.520224 0.882093
vt 0.479776 0.130571
vt 0.520224 0.130571
vt 1.709842 0.520224
vt 1.161180 0.479776
vt 1.161180 0.520224
vt 0.520224 0.130571
vt 0.479776 0.882093
vt 1.709841 0.479776
vt 1.709841 0.520224
vt 1.161180 0.130571
vt 1.161180 0.130571
vt 1.709842 0.479776
vt 0.396761 0.603239
vt 0.603239 0.396761
vt 0.396761 0.396761
vt 0.603239 0.603239
vt 3.754201 0.603239
vt 3.547724 0.396760
vt 3.754200 0.396760
vt 3.754200 0.603240
vt 3.547719 0.396761
vt 3.547719 0.603240
vt 3.547713 0.603238
vt 3.754191 0.396759
vt 3.754190 0.603237
vt 3.547723 0.603239
vt 3.754200 0.396761
vt 3.547713 0.396760
s 0
usemtl Wood_02
f 3/1/1 2/2/1 1/3/1
f 6/2/2 7/1/2 5/4/2
f 1/5/3 7/6/3 3/7/3
f 3/8/4 8/9/4 4/10/4
f 4/11/5 6/12/5 2/5/5
f 2/10/6 5/13/6 1/14/6
f 3/1/1 4/15/1 2/2/1
f 6/2/2 8/16/2 7/1/2
f 1/5/3 5/12/3 7/6/3
f 3/8/4 7/17/4 8/9/4
f 4/11/5 8/6/5 6/12/5
f 2/10/6 6/9/6 5/13/6
usemtl Wood_04
f 10/18/5 11/19/5 9/20/5
f 16/21/3 13/20/3 15/19/3
f 14/22/2 9/23/2 13/24/2
f 15/25/4 9/26/4 11/27/4
f 12/28/6 14/29/6 16/30/6
f 10/18/5 12/21/5 11/19/5
f 16/21/3 14/18/3 13/20/3
f 14/22/2 10/31/2 9/23/2
f 15/25/4 13/32/4 9/26/4
f 12/28/6 10/33/6 14/29/6
o Cube.208
v -3.772808 0.962007 7.969270
v -1.965243 0.962007 7.969270
v -1.812482 2.332778 7.041662
v -3.937628 2.332778 7.041662
v -3.937628 0.842052 8.031917
v -1.812482 0.842052 8.031917
v -3.937628 0.842052 7.041662
v -1.812482 0.842052 7.041662
v -3.772808 2.194020 7.041662
v -3.772808 0.962007 7.041662
v -1.965243 2.194020 7.041662
v -1.965243 0.962007 7.041662
v -1.965243 2.203208 7.041662
v -1.965243 2.203208 7.969270
v -3.772808 2.203208 7.969270
v -3.772808 2.203208 7.041662
v -2.264925 2.406550 7.934548
v -2.264925 2.406550 7.678204
v -2.264925 2.406550 7.179019
v -2.272234 2.118162 7.934548
v -2.272234 2.118162 7.179014
v -3.937628 2.331567 8.031917
v -1.812482 2.326576 8.031917
vn -0.0000 -0.0000 -1.0000
vn -0.0000 -1.0000 -0.0000
vn -0.0000 1.0000 -0.0000
vn -1.0000 -0.0000 -0.0000
vn 1.0000 -0.0000 -0.0000
vn -0.0000 -0.0000 1.0000
vn -0.0000 1.0000 0.0012
vn 0.0023 1.0000 0.0063
vt 1.052416 0.761565
vt 0.148624 0.140958
vt 1.052416 0.140958
vt 1.134827 0.786869
vt 0.072243 0.291737
vt 0.072243 0.786869
vt 1.052416 0.291737
vt 0.148624 0.755546
vt 0.148624 0.291737
vt 0.759231 0.761565
vt 0.295422 0.761565
vt 0.295422 0.756971
vt 0.072243 0.080980
vt 0.790554 0.825745
vt 0.295422 0.080980
vt 0.790554 0.080980
vt 0.790554 0.823250
vt 0.295422 0.826351
vt 0.072243 0.823250
vt 1.134827 0.080980
vt 1.052416 0.761565
vt 0.072243 0.826351
vt 0.148624 0.761565
vt 0.184371 0.694244
vt 0.996218 0.277619
vt 0.184371 0.277619
vt 1.070245 0.722381
vt 0.115759 0.277619
vt 1.070244 0.277621
vt 0.148624 0.761565
vt 1.134827 0.291737
vt 1.052416 0.755546
vt 0.295422 0.140958
vt 0.759231 0.140958
vt 1.134827 0.080980
vt 1.134827 0.826351
vt 1.052416 0.756971
vt 0.148624 0.756971
vt 1.134827 0.825745
vt 1.134827 0.826351
vt 0.996218 0.694244
vt 0.115759 0.722381
s 0
usemtl Wood_04
f 31/34/7 18/35/7 17/36/7
f 21/37/8 24/38/8 22/39/8
f 26/40/9 18/41/9 28/42/9
f 30/43/10 29/44/10 27/45/10
f 25/45/11 32/44/11 31/43/11
f 26/36/7 28/35/7 24/46/7
f 38/47/10 23/48/10 21/49/10
f 39/50/11 24/48/11 19/51/11
f 39/52/12 21/53/12 22/46/12
f 32/54/7 19/55/7 29/56/7
f 30/57/8 32/58/8 29/59/8
f 38/60/13 19/61/13 20/62/13
f 31/34/7 30/63/7 18/35/7
f 21/37/8 23/64/8 24/38/8
f 26/40/9 17/65/9 18/41/9
f 28/66/10 18/67/10 27/45/10
f 18/67/10 30/43/10 27/45/10
f 31/43/11 17/67/11 25/45/11
f 17/67/11 26/66/11 25/45/11
f 23/68/7 20/69/7 25/70/7
f 20/69/7 32/54/7 25/70/7
f 25/70/7 26/36/7 23/68/7
f 29/56/7 19/55/7 27/71/7
f 19/55/7 24/46/7 27/71/7
f 28/35/7 27/71/7 24/46/7
f 23/68/7 26/36/7 24/46/7
f 38/47/10 20/51/10 23/48/10
f 39/50/11 22/49/11 24/48/11
f 39/52/12 38/72/12 21/53/12
f 32/54/7 20/73/7 19/55/7
f 30/57/8 31/74/8 32/58/8
f 38/60/14 39/75/14 19/61/14
o Cube.209
v -2.856067 2.217186 7.075066
v -3.784755 2.217186 7.075066
v -2.856067 0.945129 7.075066
v -3.784755 0.945129 7.075066
v -2.856067 2.217186 7.006605
v -3.784755 2.217186 7.006605
v -2.856067 0.945129 7.006605
v -3.784755 0.945129 7.006605
v -2.994831 1.407030 6.945754
v -2.994831 1.733849 6.945754
v -2.994831 1.407030 7.013386
v -2.994831 1.733849 7.013386
v -2.927196 1.407030 6.945754
v -2.927196 1.733849 6.945754
v -2.927196 1.407030 7.013386
v -2.927196 1.733849 7.013386
vn -0.0000 -0.0000 1.0000
vn -0.0000 -0.0000 -1.0000
vn 1.0000 -0.0000 -0.0000
vn -0.0000 -1.0000 -0.0000
vn -1.0000 -0.0000 -0.0000
vn -0.0000 1.0000 -0.0000
vt 1.161180 0.882093
vt 1.709842 0.130571
vt 1.709842 0.882093
vt 1.709842 0.882093
vt 0.479776 0.130571
vt 0.520224 0.882093
vt 0.520224 0.130571
vt 1.161180 0.479776
vt 1.709842 0.520224
vt 1.161180 0.520224
vt 0.479776 0.882093
vt 0.520224 0.130571
vt 1.709841 0.479776
vt 1.709841 0.520224
vt 1.161180 0.130571
vt 1.161180 0.130571
vt 1.709842 0.479776
vt 0.603239 0.396761
vt 0.396761 0.603239
vt 0.396761 0.396761
vt 0.603239 0.603239
vt 3.547724 0.396760
vt 3.754201 0.603239
vt 3.754200 0.396760
vt 3.547719 0.396761
vt 3.754200 0.603240
vt 3.547719 0.603240
vt 3.754191 0.396759
vt 3.547713 0.603238
vt 3.754190 0.603237
vt 3.547723 0.603239
vt 3.754200 0.396761
vt 3.547713 0.396760
s 0
usemtl Wood_02
f 41/76/15 42/77/15 40/78/15
f 46/77/16 45/76/16 44/79/16
f 46/80/17 40/81/17 42/82/17
f 47/83/18 42/84/18 43/85/18
f 45/86/19 43/87/19 41/81/19
f 44/88/20 41/85/20 40/89/20
f 41/76/15 43/90/15 42/77/15
f 46/77/16 47/91/16 45/76/16
f 46/80/17 44/86/17 40/81/17
f 47/83/18 46/92/18 42/84/18
f 45/86/19 47/80/19 43/87/19
f 44/88/20 45/83/20 41/85/20
usemtl Wood_04
f 50/93/19 49/94/19 48/95/19
f 52/95/17 55/96/17 54/93/17
f 48/97/16 53/98/16 52/99/16
f 48/100/18 54/101/18 50/102/18
f 53/103/20 51/104/20 55/105/20
f 50/93/19 51/96/19 49/94/19
f 52/95/17 53/94/17 55/96/17
f 48/97/16 49/106/16 53/98/16
f 48/100/18 52/107/18 54/101/18
f 53/103/20 49/108/20 51/104/20
