# Blender 4.1.1
# www.blender.org
mtllib PuertaAula.mtl
o Cube
v -1.200000 0.000000 0.099189
v -1.200000 5.000000 0.099189
v -1.200000 0.000000 -0.099189
v -1.200000 5.000000 -0.099189
v 1.200000 0.000000 0.099189
v 1.200000 5.000000 0.099189
v 1.200000 0.000000 -0.099189
v 1.200000 5.000000 -0.099189
vn -1.0000 -0.0000 -0.0000
vn -0.0000 -0.0000 -1.0000
vn 1.0000 -0.0000 -0.0000
vn -0.0000 -0.0000 1.0000
vn -0.0000 -1.0000 -0.0000
vn -0.0000 1.0000 -0.0000
vt 0.375000 0.000000
vt 0.625000 0.000000
vt 0.625000 0.250000
vt 0.375000 0.250000
vt 0.921655 0.000403
vt 0.926947 0.960074
vt 0.086592 0.958477
vt 0.083905 0.001228
vt 0.375000 0.500000
vt 0.625000 0.500000
vt 0.625000 0.750000
vt 0.375000 0.750000
vt 0.095767 0.000632
vt 0.094939 0.958395
vt 0.923675 0.957691
vt 0.926172 -0.002345
vt 0.125000 0.500000
vt 0.125000 0.750000
vt 0.875000 0.500000
vt 0.875000 0.750000
s 0
usemtl TexturaPuerta
f 1/1/1 2/2/1 4/3/1 3/4/1
f 3/5/2 4/6/2 8/7/2 7/8/2
f 7/9/3 8/10/3 6/11/3 5/12/3
f 5/13/4 6/14/4 2/15/4 1/16/4
f 3/17/5 7/9/5 5/12/5 1/18/5
f 8/10/6 4/19/6 2/20/6 6/11/6
