# Blender 4.1.1
# www.blender.org
mtllib PuertaAula.mtl
o Cube
v -1.200000 0.000000 0.099189
v -1.200000 5.000000 0.099189
v -1.200000 -0.000000 -0.099189
v -1.200000 5.000000 -0.099189
v 1.200000 0.000000 0.099189
v 1.200000 5.000000 0.099189
v 1.200000 -0.000000 -0.099189
v 1.200000 5.000000 -0.099189
vn -1.0000 -0.0000 -0.0000
vn -0.0000 -0.0000 -1.0000
vn 1.0000 -0.0000 -0.0000
vn -0.0000 -0.0000 1.0000
vn -0.0000 -1.0000 -0.0000
vn -0.0000 1.0000 -0.0000
vt 0.019690 0.963259
vt 0.021789 0.963259
vt 0.021789 0.996503
vt 0.019690 0.996503
vt 0.022821 0.959314
vt 0.022718 1.000021
vt 0.000007 0.999998
vt -0.000043 0.959225
vt 0.018901 0.959848
vt 0.021375 0.959848
vt 0.021375 0.999948
vt 0.018901 0.999948
vt 0.000023 0.959241
vt 0.000004 0.999997
vt 0.022800 1.000021
vt 0.022811 0.959266
vt 0.125000 0.500000
vt 0.375000 0.500000
vt 0.375000 0.750000
vt 0.125000 0.750000
vt 0.625000 0.500000
vt 0.875000 0.500000
vt 0.875000 0.750000
vt 0.625000 0.750000
s 0
usemtl TexturaPuerta
f 1/1/1 2/2/1 4/3/1 3/4/1
f 3/5/2 4/6/2 8/7/2 7/8/2
f 7/9/3 8/10/3 6/11/3 5/12/3
f 5/13/4 6/14/4 2/15/4 1/16/4
f 3/17/5 7/18/5 5/19/5 1/20/5
f 8/21/6 4/22/6 2/23/6 6/24/6
