# Blender 4.1.1
# www.blender.org
mtllib PuertaAula.mtl
o Cube.001
v 2.866005 0.000000 0.099189
v 2.866005 5.000000 0.099189
v 2.866005 -0.000000 -0.099189
v 2.866005 5.000000 -0.099189
v 5.266005 0.000000 0.099189
v 5.266005 5.000000 0.099189
v 5.266005 -0.000000 -0.099189
v 5.266005 5.000000 -0.099189
vn -1.0000 -0.0000 -0.0000
vn -0.0000 -0.0000 -1.0000
vn 1.0000 -0.0000 -0.0000
vn -0.0000 -0.0000 1.0000
vn -0.0000 -1.0000 -0.0000
vn -0.0000 1.0000 -0.0000
vt 0.042292 0.993065
vt 0.040020 0.993065
vt 0.040020 0.965608
vt 0.042292 0.965608
vt 1.000949 0.002691
vt 1.000969 1.000012
vt -0.001001 0.999954
vt -0.001002 0.002691
vt 0.609931 0.333851
vt 0.606722 0.333851
vt 0.606722 0.359918
vt 0.609931 0.359918
vt -0.005519 -0.000645
vt -0.005542 0.999993
vt 1.004639 0.999970
vt 1.004700 -0.000722
vt 0.417913 0.092424
vt 0.667913 0.092424
vt 0.667913 0.342424
vt 0.417913 0.342424
vt 0.388780 0.129964
vt 0.638780 0.129964
vt 0.638780 0.379964
vt 0.388780 0.379964
s 0
usemtl TexturaPuerta.001
f 1/1/1 2/2/1 4/3/1 3/4/1
f 3/5/2 4/6/2 8/7/2 7/8/2
f 7/9/3 8/10/3 6/11/3 5/12/3
f 5/13/4 6/14/4 2/15/4 1/16/4
f 3/17/5 7/18/5 5/19/5 1/20/5
f 8/21/6 4/22/6 2/23/6 6/24/6
