# Blender 4.1.1
# www.blender.org
mtllib Urinal.mtl
o Baño
v -23.157064 -2.366396 26.005766
v -23.381104 -2.366396 25.623653
v -23.315483 -2.366396 25.893848
v -23.381104 -1.866888 25.623653
v -23.157064 -1.866888 26.005766
v -23.315483 -1.866888 25.893848
v -23.381104 -2.366396 25.357124
v -23.157064 -2.366396 24.975012
v -23.315483 -2.366396 25.086929
v -23.157064 -1.866888 24.975012
v -23.381104 -1.866888 25.357124
v -23.315483 -1.866888 25.086929
v -22.776756 -2.366396 25.623653
v -23.000795 -2.366396 26.005766
v -22.842377 -2.366396 25.893848
v -22.776756 -1.866888 25.623653
v -22.842377 -1.866888 25.893848
v -23.000795 -2.366396 24.975012
v -22.776756 -2.366396 25.357124
v -22.842377 -2.366396 25.086929
v -22.776756 -1.866888 25.357124
v -23.000795 -1.866888 24.975012
v -22.842377 -1.866888 25.086929
v -23.429373 -1.693972 25.972260
v -23.526585 -1.693972 25.571981
v -23.429373 -1.693972 24.776850
v -23.194683 -1.693972 24.611050
v -23.526585 -1.693972 25.177130
v -22.728487 -1.693972 24.776850
v -22.631275 -1.693972 25.177130
v -22.963177 -1.693972 24.611050
v -22.728487 -1.693972 25.972260
v -22.631275 -1.693972 25.571981
v -23.575621 -1.416827 25.609562
v -23.467760 -1.416827 24.727333
v -23.207363 -1.416827 24.543369
v -23.575621 -1.416827 25.171459
v -22.690100 -1.416827 24.727333
v -22.582239 -1.416827 25.171459
v -22.950497 -1.416827 24.543369
v -22.582239 -1.416827 25.609562
v -23.177475 -1.416827 25.642843
v -23.377275 -1.416827 25.534786
v -23.460035 -1.416827 25.273914
v -23.377275 -1.416827 24.755709
v -23.177475 -1.416827 24.647652
v -23.460035 -1.416827 25.016581
v -22.780584 -1.416827 24.755709
v -22.697824 -1.416827 25.016581
v -22.980385 -1.416827 24.647652
v -22.780584 -1.416827 25.534786
v -22.980385 -1.416827 25.642843
v -22.697824 -1.416827 25.273914
v -23.115576 -1.884921 25.597212
v -23.189875 -1.884921 25.557028
v -23.220652 -1.884921 25.460018
v -23.189875 -1.884921 25.267315
v -23.115576 -1.884921 25.227131
v -23.220652 -1.884921 25.364325
v -22.967985 -1.884921 25.267315
v -22.937208 -1.884921 25.364325
v -23.042284 -1.884921 25.227131
v -22.967985 -1.884921 25.557028
v -23.042284 -1.884921 25.597212
v -22.937208 -1.884921 25.460018
v -22.732588 -1.416827 25.810026
v -23.187626 -1.416827 25.844862
v -22.971066 -1.416827 25.828283
v -23.434645 -1.416827 25.863773
v -23.500732 -0.647503 25.847095
v -23.512712 -0.579787 25.915796
v -23.499716 -1.416827 25.922112
v -23.480436 -1.416827 25.867283
v -23.523567 -1.416827 25.823902
v -22.661438 -1.416827 25.804575
v -22.641840 -1.416827 25.854977
v -22.617867 -1.416827 25.756258
v -23.512712 -0.579787 25.915796
v -23.531677 -0.579787 25.981316
v -23.578804 -1.498919 25.183136
v -23.470253 -1.498919 24.736162
v -22.579056 -1.498919 25.183136
v -22.579056 -1.498919 25.624048
v -22.687607 -1.498919 24.736162
v -23.208187 -1.498919 24.551022
v -22.949673 -1.498919 24.551022
v -23.578804 -1.498919 25.624048
vn 0.9241 -0.3713 -0.0908
vn 0.9929 -0.0000 0.1188
vn 0.9929 -0.0000 -0.1188
vn -0.7492 -0.4981 -0.4366
vn -0.8641 -0.4887 -0.1207
vn -0.6690 -0.5725 -0.4741
vn -0.9339 -0.3361 0.1222
vn -0.9929 -0.0000 -0.1188
vn -0.9929 -0.0000 0.1188
vn -0.3027 -0.0000 -0.9531
vn 0.3027 -0.0000 -0.9531
vn -0.2853 -0.3512 0.8918
vn -0.8270 -0.0000 0.5622
vn -0.3029 -0.0000 0.9530
vn -0.7730 -0.3565 0.5247
vn -0.8270 -0.0000 -0.5622
vn -0.9241 -0.3713 -0.0908
vn 0.7492 -0.4981 -0.4366
vn 0.8270 -0.0000 -0.5622
vn 0.8270 -0.0000 0.5622
vn 0.9339 -0.3361 0.1222
vn 0.7730 -0.3566 0.5247
vn -0.0000 -1.0000 -0.0000
vn -0.1526 -0.8987 -0.4112
vn 0.2350 -0.6189 -0.7494
vn 0.1526 -0.8987 -0.4112
vn 0.6690 -0.5725 -0.4741
vn 0.7498 -0.4663 0.4695
vn -0.8845 -0.4581 0.0889
vn -0.7501 -0.4647 0.4705
vn 0.8845 -0.4581 0.0889
vn -0.2350 -0.6189 -0.7494
vn 0.8641 -0.4887 -0.1207
vn -0.0000 1.0000 -0.0000
vn -0.8214 -0.1533 -0.5494
vn -0.9914 0.0200 -0.1297
vn -0.8133 -0.0377 -0.5806
vn 0.9872 -0.1153 -0.1104
vn 0.9927 0.0572 0.1059
vn 0.9821 -0.1137 0.1505
vn 0.8214 -0.1533 -0.5494
vn 0.9914 0.0200 -0.1297
vn -0.2988 -0.1898 -0.9352
vn 0.2949 -0.0857 -0.9517
vn 0.2988 -0.1898 -0.9352
vn -0.9872 -0.1153 -0.1104
vn -0.9927 0.0572 0.1059
vn 0.8131 -0.0378 -0.5809
vn -0.8129 -0.0379 -0.5812
vn -0.2949 -0.0857 -0.9517
vn -0.2086 0.9572 0.2008
vn -0.1010 0.9249 0.3665
vn -0.4016 0.8792 0.2563
vn -0.0660 0.9584 0.2777
vn 0.2083 0.9573 0.2005
vn 0.0660 0.9584 0.2777
vn -0.9496 -0.1381 0.2815
vn -0.9828 -0.1144 0.1447
vn 0.1010 0.9249 0.3665
vn -0.2584 0.1275 -0.9576
vn 0.2275 0.1242 -0.9658
vn 0.2584 0.1275 -0.9576
vn -0.7002 0.2485 -0.6693
vn -0.2275 0.1242 -0.9658
vn 0.8223 0.5442 0.1665
vn 0.4016 0.8792 0.2563
vn -0.9017 0.4193 -0.1052
vn -0.8596 0.5036 0.0861
vn -0.9030 0.3907 -0.1789
vn 0.7002 0.2485 -0.6693
vn 0.7742 0.2830 -0.5662
vn -0.7742 0.2830 -0.5662
vn -0.8221 0.5443 0.1667
vn -0.8594 0.5039 0.0868
vn 0.9030 0.3907 -0.1789
vn 0.9017 0.4192 -0.1056
vn 0.9017 0.4194 -0.1049
vn 0.8594 0.5039 0.0867
vn 0.3029 0.0001 0.9530
vn -0.2080 0.9574 0.2003
vn -0.8225 0.5440 0.1661
vn 0.8596 0.5036 0.0861
vn 0.9504 -0.1017 0.2941
vn -0.1098 -0.9801 -0.1656
vn 0.1006 -0.9801 0.1713
vn 0.1232 0.6966 -0.7068
vn -0.2780 -0.0000 0.9606
vt 0.625000 0.592678
vt 0.375000 0.657322
vt 0.375000 0.592678
vt 0.625000 0.250000
vt 0.625000 0.157322
vt 0.625000 0.092678
vt 0.375000 0.157322
vt 0.375000 0.092678
vt 0.625000 0.342678
vt 0.375000 0.407322
vt 0.375000 0.342678
vt 0.625000 0.907322
vt 0.375000 1.000000
vt 0.375000 0.907322
vt 0.625000 0.000000
vt 0.375000 0.000000
vt 0.375000 0.250000
vt 0.625000 0.500000
vt 0.375000 0.500000
vt 0.625000 0.407322
vt 0.375000 0.750000
vt 0.625000 0.657322
vt 0.625000 0.750000
vt 0.152145 0.722855
vt 0.125000 0.657322
vt 0.347855 0.722855
vt 0.625000 0.342678
vt 0.625000 0.047950
vt 0.625000 0.592678
vt 0.782322 0.500000
vt 0.875000 0.592678
vt 0.625000 0.842678
vt 0.625000 1.000000
vt 0.625000 0.027457
vt 0.625000 0.034797
vt 0.625000 0.713940
vt 0.625000 0.704699
vt 0.625000 0.687934
vt 0.375000 0.842678
vt 0.125000 0.592678
vt 0.375000 0.592678
vt 0.152145 0.527145
vt 0.217678 0.500000
vt 0.282322 0.500000
vt 0.347855 0.527145
vt 0.282322 0.750000
vt 0.217678 0.750000
vt 0.652145 0.527145
vt 0.717678 0.500000
vt 0.847855 0.527145
vt 0.875000 0.657322
vt 0.847855 0.722855
vt 0.782322 0.750000
vt 0.717678 0.750000
vt 0.652145 0.722855
vt 0.625000 0.003182
vt 0.625000 0.022596
s 1
f 21/1/1 13/2/2 19/3/3
f 12/4/4 28/5/5 26/4/6
f 4/6/7 7/7/8 2/8/9
f 10/9/10 18/10/11 8/11/10
f 5/12/12 3/13/13 1/14/14
f 6/15/15 2/8/9 3/16/13
f 8/11/10 12/4/4 10/9/10
f 9/17/16 11/5/17 12/4/4
f 19/3/3 23/18/18 21/1/1
f 20/19/19 22/20/11 23/18/18
f 15/21/20 16/22/21 17/23/22
s 0
f 3/24/23 2/25/23 15/26/23
s 1
f 10/9/24 31/20/25 22/20/26
f 22/20/26 29/18/27 23/18/18
f 16/22/21 32/23/28 17/23/22
f 11/5/17 25/6/29 28/5/5
f 4/6/7 24/15/30 25/6/29
f 21/1/1 33/22/31 16/22/21
f 10/9/24 26/4/6 27/9/32
f 23/18/18 30/1/33 21/1/1
s 0
f 38/18/34 49/1/34 39/1/34
s 1
f 81/4/35 37/5/36 35/4/37
f 82/1/38 41/22/39 83/22/40
s 0
f 41/22/34 53/22/34 51/23/34
s 1
f 84/18/41 39/1/42 82/1/38
f 85/27/43 40/20/44 86/20/45
f 80/5/46 34/6/47 37/5/36
f 86/20/45 38/18/48 84/18/41
f 85/27/43 35/4/49 36/9/50
f 48/18/51 62/20/52 60/18/53
f 36/9/34 50/20/54 40/20/34
s 0
f 37/5/34 44/6/34 47/5/34
s 1
f 40/20/34 48/18/51 38/18/34
f 36/9/34 45/4/55 46/9/56
f 24/15/30 74/28/57 87/6/58
f 35/4/34 47/5/34 45/4/55
s 0
f 39/1/34 53/22/34 41/22/34
s 1
f 61/29/34 58/30/59 59/31/34
f 45/4/55 58/9/59 46/9/56
f 52/32/60 54/12/61 42/12/62
f 52/32/60 63/23/63 64/32/64
f 47/5/65 57/4/66 45/4/55
f 53/22/67 61/1/68 65/22/69
f 42/12/62 55/33/70 43/33/71
f 51/23/72 65/22/69 63/23/63
f 49/1/73 60/18/53 61/1/74
f 46/9/56 62/20/52 50/20/54
f 43/15/71 56/6/75 44/6/76
f 44/6/77 59/5/78 47/5/65
s 0
f 69/33/34 42/12/34 43/33/34
f 66/23/34 52/32/34 68/32/34
f 68/32/34 42/12/34 67/12/34
f 72/34/34 73/35/34 74/28/34
f 75/36/34 76/37/34 77/38/34
f 69/15/34 43/15/34 74/28/34
s 1
f 27/9/32 81/4/35 85/27/43
f 31/20/25 84/18/41 29/18/27
f 25/6/29 80/5/46 28/5/5
f 27/9/32 86/20/45 31/20/25
f 29/18/27 82/1/38 30/1/33
f 33/22/31 82/1/38 83/22/40
f 26/4/6 80/5/46 81/4/35
f 21/1/1 16/22/21 13/2/2
f 12/4/4 11/5/17 28/5/5
f 4/6/7 11/5/17 7/7/8
f 10/9/10 22/20/11 18/10/11
f 5/12/12 6/33/15 3/13/13
f 6/15/15 4/6/7 2/8/9
f 8/11/10 9/17/16 12/4/4
f 9/17/16 7/7/8 11/5/17
f 19/3/3 20/19/19 23/18/18
f 20/19/19 18/10/11 22/20/11
f 14/39/79 15/21/20 17/23/22
f 15/21/20 13/2/2 16/22/21
s 0
f 2/25/23 7/40/23 19/41/23
f 7/40/23 9/42/23 19/41/23
f 9/42/23 8/43/23 18/44/23
f 18/44/23 20/45/23 9/42/23
f 20/45/23 19/41/23 9/42/23
f 19/41/23 13/2/23 2/25/23
f 13/2/23 15/26/23 2/25/23
f 15/26/23 14/46/23 1/47/23
f 1/47/23 3/24/23 15/26/23
s 1
f 10/9/24 27/9/32 31/20/25
f 22/20/26 31/20/25 29/18/27
f 16/22/21 33/22/31 32/23/28
f 11/5/17 4/6/7 25/6/29
f 4/6/7 6/15/15 24/15/30
f 21/1/1 30/1/33 33/22/31
f 10/9/24 12/4/4 26/4/6
f 23/18/18 29/18/27 30/1/33
f 38/18/34 48/18/80 49/1/34
f 81/4/35 80/5/46 37/5/36
f 82/1/38 39/1/42 41/22/39
s 0
f 51/23/34 66/23/34 77/38/34
f 66/23/34 75/36/34 77/38/34
f 77/38/34 41/22/34 51/23/34
s 1
f 84/18/41 38/18/48 39/1/42
f 85/27/43 36/9/50 40/20/44
f 80/5/46 87/6/58 34/6/47
f 86/20/45 40/20/44 38/18/48
f 85/27/43 81/4/35 35/4/49
f 48/18/51 50/20/54 62/20/52
f 36/9/34 46/9/56 50/20/54
s 0
f 37/5/34 34/6/34 44/6/34
s 1
f 40/20/34 50/20/54 48/18/51
f 36/9/34 35/4/34 45/4/55
f 87/6/58 25/6/29 24/15/30
f 74/28/57 34/6/47 87/6/58
s 0
f 35/4/34 37/5/34 47/5/34
f 39/1/34 49/1/34 53/22/34
f 65/22/34 61/29/34 59/31/34
s 1
f 61/29/34 60/48/53 62/49/52
f 58/30/59 61/29/34 62/49/52
f 58/30/59 57/50/66 59/31/34
s 0
f 59/31/34 56/51/34 65/22/34
f 56/51/34 55/52/34 54/53/34
f 65/22/34 56/51/34 64/54/34
f 54/53/34 64/54/34 56/51/34
f 64/54/34 63/55/34 65/22/34
s 1
f 45/4/55 57/4/66 58/9/59
f 52/32/60 64/32/64 54/12/61
f 52/32/60 51/23/72 63/23/63
f 47/5/65 59/5/78 57/4/66
f 53/22/67 49/1/81 61/1/68
f 42/12/62 54/12/61 55/33/70
f 51/23/72 53/22/67 65/22/69
f 49/1/73 48/18/51 60/18/53
f 46/9/56 58/9/59 62/20/52
f 43/15/71 55/15/70 56/6/75
f 44/6/76 56/6/75 59/5/82
s 0
f 69/33/34 67/12/34 42/12/34
f 66/23/34 51/23/34 52/32/34
f 68/32/34 52/32/34 42/12/34
s 1
f 32/23/28 33/22/31 83/22/40
f 83/22/40 41/22/39 77/38/83
f 32/23/28 83/22/40 77/38/83
f 78/15/84 71/15/85 70/15/86
f 71/15/85 78/15/84 79/56/87
s 0
f 44/6/34 34/6/34 43/15/34
f 34/6/34 74/28/34 43/15/34
f 74/28/34 73/57/34 69/15/34
s 1
f 27/9/32 26/4/6 81/4/35
f 31/20/25 86/20/45 84/18/41
f 25/6/29 87/6/58 80/5/46
f 27/9/32 85/27/43 86/20/45
f 29/18/27 84/18/41 82/1/38
f 33/22/31 30/1/33 82/1/38
f 26/4/6 28/5/5 80/5/46
