# Blender 4.1.1
# www.blender.org
mtllib VentTecho.mtl
o Cube.235
v -17.956188 2.179177 -1.218120
v -17.956188 2.210531 -1.252058
v -17.956188 2.273407 -1.218120
v -17.956188 2.242053 -1.252058
v -17.766983 2.179177 -1.139749
v -17.742985 2.210531 -1.163746
v -17.766983 2.273407 -1.139749
v -17.742985 2.242053 -1.163746
v -17.688612 2.179177 -0.950543
v -17.654675 2.210531 -0.950543
v -17.688612 2.273407 -0.950543
v -17.654675 2.242053 -0.950543
v -17.766983 2.179177 -0.761337
v -17.742985 2.210531 -0.737340
v -17.766983 2.273407 -0.761337
v -17.742985 2.242053 -0.737340
v -17.956188 2.179177 -0.682966
v -17.956188 2.210531 -0.649028
v -17.956188 2.273407 -0.682966
v -17.956188 2.242053 -0.649028
v -18.145393 2.179177 -0.761337
v -18.169392 2.210531 -0.737340
v -18.145393 2.273407 -0.761337
v -18.169392 2.242053 -0.737340
v -18.223766 2.179177 -0.950543
v -18.257704 2.210531 -0.950543
v -18.223766 2.273407 -0.950543
v -18.257704 2.242053 -0.950543
v -18.145393 2.179177 -1.139749
v -18.169392 2.210531 -1.163746
v -18.145393 2.273407 -1.139749
v -18.169392 2.242053 -1.163746
v -17.982510 2.222901 -1.149064
v -17.982510 2.238306 -1.149064
v -18.054831 2.222901 -1.269776
v -18.054831 2.238306 -1.269776
v -18.103222 2.222901 -1.076743
v -18.103222 2.238306 -1.076743
v -18.175543 2.238306 -1.197455
v -18.175543 2.222901 -1.197455
v -18.048094 2.238306 -1.329611
v -18.048094 2.222901 -1.329611
v -18.231480 2.238306 -1.219740
v -18.231480 2.222901 -1.219740
v -18.680399 2.238306 -2.449642
v -18.681456 2.222901 -2.451406
v -18.920788 2.238306 -2.305619
v -18.921844 2.222901 -2.307384
v -18.955957 2.276108 -2.691515
v -18.802519 2.259015 -2.653473
v -18.871195 2.271102 -2.704231
v -18.800432 2.273953 -2.649991
v -18.953880 2.290974 -2.688049
v -18.869114 2.285989 -2.700759
v -19.042908 2.259015 -2.509450
v -19.004070 2.276108 -2.662689
v -19.055267 2.271102 -2.593948
v -19.001993 2.290974 -2.659223
v -19.040821 2.273953 -2.505967
v -19.053188 2.285989 -2.590477
v -17.756037 2.222901 -0.880349
v -17.756037 2.238306 -0.880349
v -17.615318 2.222901 -0.880349
v -17.615318 2.238306 -0.880349
v -17.756037 2.222901 -1.021067
v -17.756037 2.238306 -1.021067
v -17.615318 2.238306 -1.021067
v -17.615318 2.222901 -1.021067
v -17.567453 2.238306 -0.843819
v -17.567453 2.222901 -0.843819
v -17.567453 2.238306 -1.057598
v -17.567453 2.222901 -1.057598
v -16.281694 2.238306 -0.810593
v -16.279638 2.222901 -0.810593
v -16.281694 2.238306 -1.090824
v -16.279638 2.222901 -1.090824
v -15.932588 2.276108 -0.922665
v -16.044081 2.259015 -0.810593
v -15.965243 2.271102 -0.843418
v -16.048141 2.273953 -0.810593
v -15.936628 2.290974 -0.922665
v -15.969290 2.285989 -0.843418
v -16.044081 2.259015 -1.090824
v -15.932588 2.276108 -0.978753
v -15.965243 2.271102 -1.057999
v -15.936628 2.290974 -0.978753
v -16.048141 2.273953 -1.090824
v -15.969290 2.285989 -1.057999
v -18.102942 2.222901 -0.824180
v -18.102942 2.238306 -0.824180
v -18.175262 2.222901 -0.703468
v -18.175262 2.238306 -0.703468
v -17.982229 2.222901 -0.751858
v -17.982229 2.238306 -0.751858
v -18.054550 2.238306 -0.631147
v -18.054550 2.222901 -0.631147
v -18.231199 2.238306 -0.681182
v -18.231199 2.222901 -0.681182
v -18.047813 2.238306 -0.571312
v -18.047813 2.222901 -0.571312
v -18.920507 2.238306 0.404698
v -18.921564 2.222901 0.406462
v -18.680119 2.238306 0.548721
v -18.681175 2.222901 0.550485
v -19.003790 2.276108 0.761768
v -19.042627 2.259015 0.608529
v -19.054987 2.271102 0.693027
v -19.040541 2.273953 0.605046
v -19.001713 2.290974 0.758302
v -19.052906 2.285989 0.689556
v -18.802238 2.259015 0.752552
v -18.955677 2.276108 0.790594
v -18.870914 2.271102 0.803310
v -18.953600 2.290974 0.787127
v -18.800152 2.273953 0.749069
v -18.868834 2.285989 0.799838
vn -0.0000 1.0000 -0.0000
vn 0.2706 -0.7071 -0.6533
vn 0.2706 0.7071 -0.6533
vn 0.6533 -0.7071 -0.2706
vn 0.6533 0.7071 -0.2706
vn 0.6533 -0.7071 0.2706
vn 0.6533 0.7071 0.2706
vn 0.2706 -0.7071 0.6533
vn 0.2706 0.7071 0.6533
vn -0.2706 -0.7071 0.6533
vn -0.2706 0.7071 0.6533
vn -0.6533 -0.7071 0.2706
vn -0.6533 0.7071 0.2706
vn -0.6533 -0.7071 -0.2706
vn -0.6533 0.7071 -0.2706
vn -0.2706 -0.7071 -0.6533
vn -0.2706 0.7071 -0.6533
vn -0.0000 -1.0000 -0.0000
vn 0.8578 -0.0000 -0.5139
vn -0.8578 -0.0000 0.5139
vn -0.3701 -0.0000 0.9290
vn 0.9937 -0.0000 0.1119
vn -0.8443 -0.0000 0.5359
vn -0.8509 -0.0018 0.5253
vn -0.8514 -0.0017 0.5245
vn 0.8708 -0.0000 -0.4916
vn 0.8646 -0.0018 -0.5024
vn 0.0775 0.9886 0.1294
vn -0.3217 0.2574 -0.9112
vn -0.6558 0.2571 -0.7098
vn -0.3165 0.2571 -0.9131
vn 0.0392 0.9971 0.0654
vn -0.0394 -0.9971 -0.0657
vn -0.9336 0.0476 0.3552
vn -0.9424 0.0547 0.3299
vn 0.8641 -0.0017 -0.5033
vn 0.7536 0.0476 -0.6556
vn 0.8646 -0.0018 -0.5025
vn -0.1299 0.2424 -0.9614
vn 0.6027 0.1004 -0.7916
vn 0.7354 0.0547 -0.6754
vn -0.9823 0.1003 0.1580
vn -0.7865 0.2423 -0.5681
vn -0.6517 0.2574 -0.7135
vn -0.0779 -0.9885 -0.1300
vn -0.0000 -0.0000 1.0000
vn -0.0000 -0.0000 -1.0000
vn -0.6067 -0.0000 -0.7949
vn -0.6067 -0.0000 0.7949
vn -0.0258 -0.0000 -0.9997
vn -0.0133 -0.0018 -0.9999
vn -0.0124 -0.0017 -0.9999
vn -0.0258 -0.0000 0.9997
vn -0.0134 -0.0018 0.9999
vn -0.1509 0.9886 -0.0000
vn 0.9470 0.2574 -0.1924
vn 0.9459 0.2571 0.1978
vn 0.9470 0.2574 0.1923
vn -0.0763 0.9971 -0.0000
vn 0.0766 -0.9971 -0.0000
vn 0.1751 0.0476 -0.9834
vn 0.2013 0.0547 -0.9780
vn -0.0124 -0.0017 0.9999
vn 0.1751 0.0476 0.9834
vn -0.0133 -0.0018 0.9999
vn 0.8915 0.2424 0.3827
vn 0.3693 0.1004 0.9239
vn 0.2014 0.0547 0.9780
vn 0.2014 0.0548 -0.9780
vn 0.3693 0.1004 -0.9239
vn 0.8915 0.2423 -0.3827
vn 0.9459 0.2571 -0.1978
vn 0.1515 -0.9885 -0.0000
vn -0.8578 -0.0000 -0.5139
vn 0.8578 -0.0000 0.5139
vn 0.9937 -0.0000 -0.1119
vn -0.3701 -0.0000 -0.9290
vn 0.8708 -0.0000 0.4916
vn 0.8646 -0.0018 0.5025
vn 0.8641 -0.0017 0.5033
vn -0.8443 -0.0000 -0.5359
vn -0.8509 -0.0018 -0.5253
vn 0.0775 0.9886 -0.1294
vn -0.3217 0.2574 0.9112
vn -0.6558 0.2571 0.7098
vn -0.6517 0.2574 0.7135
vn 0.0392 0.9971 -0.0655
vn 0.0392 0.9971 -0.0654
vn -0.0394 -0.9971 0.0657
vn 0.7536 0.0476 0.6557
vn 0.7355 0.0547 0.6753
vn -0.8514 -0.0017 -0.5245
vn -0.9336 0.0476 -0.3552
vn -0.7865 0.2423 0.5681
vn -0.9823 0.1004 -0.1580
vn -0.9424 0.0548 -0.3299
vn 0.7354 0.0547 0.6754
vn 0.6027 0.1004 0.7916
vn -0.1299 0.2424 0.9614
vn -0.3165 0.2571 0.9131
vn -0.0779 -0.9885 0.1300
vn 0.7355 0.0547 -0.6753
vn 0.7535 0.0476 -0.6557
vn -0.9823 0.1004 0.1580
vn 0.2013 0.0547 0.9780
vn 0.1752 0.0476 0.9834
vn 0.8915 0.2424 -0.3827
vn -0.9424 0.0547 -0.3299
vn -0.9336 0.0476 -0.3551
vn 0.6027 0.1003 0.7916
vn -0.3827 -0.0000 -0.9239
vn 0.9239 -0.0000 0.3827
vn 0.3827 -0.0000 0.9239
vn -0.3827 -0.0000 0.9239
vn -0.9239 -0.0000 0.3827
vn -0.9239 -0.0000 -0.3827
vn 0.9239 -0.0000 -0.3827
vn 0.3827 -0.0000 -0.9239
vt 0.579489 0.500002
vt 0.495075 0.584417
vt 0.410660 0.500002
vt 0.495075 0.595123
vt 0.554765 0.559692
vt 0.562335 0.567263
vt 0.590195 0.500002
vt 0.554765 0.440313
vt 0.562335 0.432742
vt 0.495075 0.415588
vt 0.495075 0.404882
vt 0.427814 0.432742
vt 0.435385 0.440313
vt 0.399954 0.500002
vt 0.427814 0.567263
vt 0.435385 0.559692
vt 0.595845 0.499694
vt 0.557764 0.499959
vt 0.557764 0.499694
vt 0.534948 0.499694
vt 0.573030 0.499959
vt 0.573030 0.499694
vt 0.425874 0.499694
vt 0.408227 0.499959
vt 0.408227 0.499694
vt 0.614722 0.499694
vt 0.595845 0.499959
vt 0.580060 0.499694
vt 0.922630 0.499959
vt 0.923186 0.499694
vt 0.968065 0.499959
vt 0.614722 0.499959
vt 0.228736 1.036138
vt 0.207068 1.052154
vt 0.180327 1.048145
vt 0.179671 1.049238
vt 0.165148 1.039051
vt 0.486771 0.562631
vt 0.425874 0.577897
vt 0.448689 0.539816
vt 0.466081 0.619589
vt 0.408227 0.584928
vt 0.266603 0.972933
vt 0.190766 0.927497
vt 0.266270 0.973489
vt 0.190433 0.928053
vt 0.985835 0.500570
vt 0.986934 0.500314
vt 0.968622 0.499694
vt 1.031270 0.500570
vt 0.206412 1.053250
vt 0.228077 1.037237
vt 0.152240 0.991801
vt 0.148997 1.017363
vt 0.148341 1.018458
vt 0.164493 1.040144
vt 0.602611 0.499694
vt 0.558218 0.499959
vt 0.558218 0.499694
vt 0.602611 0.499959
vt 0.617712 0.499959
vt 0.617712 0.499694
vt 1.023338 0.499959
vt 1.023987 0.499694
vt 1.097018 0.455851
vt 1.121894 0.466207
vt 1.132198 0.491207
vt 1.133473 0.508902
vt 1.133473 0.491207
vt 0.558218 0.477858
vt 0.602611 0.522251
vt 0.558218 0.522251
vt 0.617712 0.466333
vt 0.617712 0.533776
vt 1.023338 0.455851
vt 1.023338 0.544258
vt 1.023987 0.455851
vt 1.023987 0.544258
vt 1.097019 0.500570
vt 1.098300 0.500314
vt 1.097018 0.500570
vt 1.123171 0.466207
vt 1.098300 0.455851
vt 1.098300 0.544258
vt 1.121894 0.533902
vt 1.123171 0.533902
vt 1.132198 0.508902
vt 0.417188 0.499694
vt 0.455270 0.499959
vt 0.455270 0.499694
vt 0.432455 0.499694
vt 0.394373 0.499959
vt 0.394373 0.499694
vt 0.375496 0.499959
vt 0.375496 0.499694
vt 0.408315 0.499694
vt 0.425962 0.499959
vt 0.425962 0.499694
vt 0.022153 0.499959
vt 0.021596 0.499694
vt 0.410158 0.499694
vt 0.067589 0.499959
vt 0.410158 0.499959
vt 0.152987 0.009251
vt 0.149086 -0.017410
vt 0.165236 -0.039098
vt 0.179760 -0.049285
vt 0.164581 -0.040191
vt 0.448778 0.460138
vt 0.464044 0.399240
vt 0.486859 0.437322
vt 0.408315 0.415025
vt 0.466169 0.380364
vt 0.266692 0.027020
vt 0.190855 0.072456
vt 0.190521 0.071899
vt 0.266358 0.026464
vt -0.041052 0.500570
vt -0.042151 0.500314
vt 0.067032 0.499694
vt 0.004383 0.500570
vt 0.148430 -0.018505
vt 0.152329 0.008152
vt 0.228166 -0.037284
vt 0.207157 -0.052201
vt 0.206500 -0.053297
vt 0.180415 -0.048191
vt 0.534948 0.499959
vt 0.425874 0.499959
vt 0.580060 0.499959
vt 0.152899 0.990702
vt 0.463955 0.600713
vt 1.032369 0.500314
vt 1.097019 0.544258
vt 0.602611 0.477858
vt 0.417188 0.499959
vt 0.432455 0.499959
vt 0.408315 0.499959
vt 0.228824 -0.036185
vt 0.425962 0.422056
vt 0.003285 0.500314
vt 0.427814 0.500023
vt 0.495075 0.499482
vt 0.427814 0.499482
vt 0.495135 0.500023
vt 0.427874 0.499482
vt 0.495135 0.499482
vt 0.562335 0.500023
vt 0.562335 0.499482
vt 0.495075 0.500023
vt 0.427814 0.499482
vt 0.427874 0.500023
vt 0.427874 0.499482
vt 0.562395 0.499482
vt 0.562395 0.500023
vt 0.562395 0.499482
vt 0.427874 0.500023
vt 0.427814 0.500023
vt 0.562395 0.500023
s 0
usemtl Material.010
f 32/142/111 2/143/111 30/144/111
f 12/145/112 14/146/112 10/147/112
f 16/148/113 18/143/113 14/149/113
f 20/150/114 22/151/114 18/143/114
f 24/152/115 26/147/115 22/153/115
f 28/145/116 30/154/116 26/147/116
f 8/155/117 10/147/117 6/156/117
f 4/150/118 6/149/118 2/143/118
f 32/142/111 4/150/111 2/143/111
f 12/145/112 16/157/112 14/146/112
f 16/148/113 20/150/113 18/143/113
f 20/150/114 24/158/114 22/151/114
f 24/152/115 28/145/115 26/147/115
f 28/145/116 32/159/116 30/154/116
f 8/155/117 12/145/117 10/147/117
f 4/150/118 8/148/118 6/149/118
usemtl Metal
f 11/1/1 3/2/1 27/3/1
f 2/4/2 5/5/2 1/2/2
f 4/4/3 7/5/3 8/6/3
f 6/6/4 9/1/4 5/5/4
f 8/6/5 11/1/5 12/7/5
f 10/7/6 13/8/6 9/1/6
f 12/7/7 15/8/7 16/9/7
f 14/9/8 17/10/8 13/8/8
f 16/9/9 19/10/9 20/11/9
f 22/12/10 17/10/10 18/11/10
f 24/12/11 19/10/11 23/13/11
f 26/14/12 21/13/12 22/12/12
f 28/14/13 23/13/13 27/3/13
f 30/15/14 25/3/14 26/14/14
f 32/15/15 27/3/15 31/16/15
f 2/4/16 29/16/16 30/15/16
f 4/4/17 31/16/17 3/2/17
f 13/8/18 21/13/18 29/16/18
f 35/17/19 34/18/19 33/19/19
f 37/20/20 39/21/20 40/22/20
f 40/23/21 43/24/21 44/25/21
f 42/26/22 36/27/22 35/17/22
s 1
f 44/28/23 47/29/24 48/30/25
f 42/26/26 45/31/27 41/32/26
s 0
f 52/33/28 54/34/28 53/35/28
s 1
f 49/36/29 58/37/30 53/35/31
s 0
f 34/38/1 39/39/1 38/40/1
f 40/39/18 33/38/18 37/40/18
f 39/39/1 41/41/1 43/42/1
f 42/41/18 40/39/18 44/42/18
s 1
f 43/42/1 45/43/32 47/44/32
f 46/45/33 44/42/18 48/46/33
f 48/30/25 59/47/34 55/48/35
f 46/49/36 52/50/37 45/31/38
f 53/35/31 51/51/39 49/36/29
f 54/34/40 50/52/41 51/51/40
f 55/53/35 60/54/42 57/55/42
f 57/55/43 58/37/30 56/56/44
s 0
f 55/53/45 49/36/45 50/52/45
f 63/57/46 62/58/46 61/59/46
f 65/59/47 67/60/47 68/57/47
f 68/57/48 71/61/48 72/62/48
f 70/62/49 64/60/49 63/57/49
s 1
f 72/62/50 75/63/51 76/64/52
f 70/62/53 73/63/54 69/61/53
s 0
f 80/65/55 82/66/55 81/67/55
s 1
f 84/68/56 81/67/57 77/69/58
s 0
f 62/70/1 67/71/1 66/72/1
f 68/71/18 61/70/18 65/72/18
f 67/71/1 69/73/1 71/74/1
f 70/73/18 68/71/18 72/74/18
s 1
f 71/74/1 73/75/59 75/76/59
f 74/77/60 72/74/18 76/78/60
f 76/64/52 87/79/61 83/80/62
f 74/64/63 80/81/64 73/63/65
f 81/67/57 79/82/66 77/69/58
f 82/66/67 78/83/68 79/82/67
f 83/84/69 88/85/70 85/86/70
f 85/86/71 86/87/72 84/68/56
s 0
f 83/84/73 77/69/73 78/83/73
f 91/88/74 90/89/74 89/90/74
f 93/91/75 95/92/75 96/93/75
f 96/93/76 99/94/76 100/95/76
f 98/96/77 92/97/77 91/98/77
s 1
f 100/95/78 103/99/79 104/100/80
f 98/101/81 101/102/82 97/103/81
s 0
f 108/104/83 110/105/83 109/106/83
s 1
f 112/107/84 109/106/85 105/108/86
s 0
f 90/109/1 95/110/1 94/111/1
f 96/110/18 89/109/18 93/111/18
f 95/110/1 97/112/1 99/113/1
f 98/112/18 96/110/18 100/113/18
s 1
f 103/114/87 97/112/1 101/115/88
f 102/116/89 100/113/18 104/117/89
f 104/100/80 115/118/90 111/119/91
f 102/120/92 108/121/93 101/102/82
f 109/106/85 107/122/94 105/108/86
f 110/105/95 106/123/96 107/122/95
f 111/124/97 116/125/98 113/126/98
f 113/126/99 114/127/100 112/107/84
s 0
f 111/124/101 105/108/101 106/123/101
f 11/1/1 7/5/1 3/2/1
f 3/2/1 31/16/1 27/3/1
f 27/3/1 23/13/1 11/1/1
f 23/13/1 19/10/1 11/1/1
f 19/10/1 15/8/1 11/1/1
f 2/4/2 6/6/2 5/5/2
f 4/4/3 3/2/3 7/5/3
f 6/6/4 10/7/4 9/1/4
f 8/6/5 7/5/5 11/1/5
f 10/7/6 14/9/6 13/8/6
f 12/7/7 11/1/7 15/8/7
f 14/9/8 18/11/8 17/10/8
f 16/9/9 15/8/9 19/10/9
f 22/12/10 21/13/10 17/10/10
f 24/12/11 20/11/11 19/10/11
f 26/14/12 25/3/12 21/13/12
f 28/14/13 24/12/13 23/13/13
f 30/15/14 29/16/14 25/3/14
f 32/15/15 28/14/15 27/3/15
f 2/4/16 1/2/16 29/16/16
f 4/4/17 32/15/17 31/16/17
f 29/16/18 1/2/18 5/5/18
f 5/5/18 9/1/18 13/8/18
f 13/8/18 17/10/18 21/13/18
f 21/13/18 25/3/18 29/16/18
f 29/16/18 5/5/18 13/8/18
f 35/17/19 36/27/19 34/18/19
f 37/20/20 38/128/20 39/21/20
f 40/23/21 39/129/21 43/24/21
f 42/26/22 41/32/22 36/27/22
s 1
f 44/28/23 43/130/23 47/29/24
f 42/26/26 46/49/36 45/31/38
s 0
f 53/35/28 58/37/28 59/131/28
f 58/37/28 60/54/28 59/131/28
s 1
f 59/131/28 47/44/32 52/33/28
s 0
f 53/35/28 59/131/28 52/33/28
s 1
f 47/44/32 45/43/32 52/33/28
f 49/36/29 56/56/44 58/37/30
s 0
f 34/38/1 36/132/1 39/39/1
f 40/39/18 35/132/18 33/38/18
f 39/39/1 36/132/1 41/41/1
f 42/41/18 35/132/18 40/39/18
s 1
f 43/42/1 41/41/1 45/43/32
f 46/45/33 42/41/18 44/42/18
f 48/30/25 47/29/24 59/47/34
f 46/49/36 50/133/102 52/50/37
f 53/35/31 54/34/39 51/51/39
f 54/34/40 52/33/103 50/52/41
f 55/53/35 59/131/34 60/54/104
f 57/55/43 60/54/43 58/37/30
f 48/46/33 55/53/45 50/52/45
s 0
f 55/53/45 57/55/45 56/56/45
f 49/36/45 55/53/45 56/56/45
f 49/36/45 51/51/45 50/52/45
s 1
f 50/52/45 46/45/33 48/46/33
s 0
f 63/57/46 64/60/46 62/58/46
f 65/59/47 66/58/47 67/60/47
f 68/57/48 67/60/48 71/61/48
f 70/62/49 69/61/49 64/60/49
s 1
f 72/62/50 71/61/50 75/63/51
f 70/62/53 74/64/63 73/63/65
s 0
f 81/67/55 86/87/55 87/134/55
f 86/87/55 88/85/55 87/134/55
s 1
f 87/134/55 75/76/59 80/65/55
s 0
f 81/67/55 87/134/55 80/65/55
s 1
f 75/76/59 73/75/59 80/65/55
f 84/68/56 86/87/72 81/67/57
s 0
f 62/70/1 64/135/1 67/71/1
f 68/71/18 63/135/18 61/70/18
f 67/71/1 64/135/1 69/73/1
f 70/73/18 63/135/18 68/71/18
s 1
f 71/74/1 69/73/1 73/75/59
f 74/77/60 70/73/18 72/74/18
f 76/64/52 75/63/51 87/79/61
f 74/64/63 78/80/105 80/81/64
f 81/67/57 82/66/66 79/82/66
f 82/66/67 80/65/106 78/83/68
f 83/84/62 87/134/61 88/85/70
f 85/86/107 88/85/107 86/87/72
f 76/78/60 83/84/73 78/83/73
s 0
f 83/84/73 85/86/73 84/68/73
f 77/69/73 83/84/73 84/68/73
f 77/69/73 79/82/73 78/83/73
s 1
f 78/83/73 74/77/60 76/78/60
s 0
f 91/88/74 92/136/74 90/89/74
f 93/91/75 94/137/75 95/92/75
f 96/93/76 95/92/76 99/94/76
f 98/96/77 97/138/77 92/97/77
s 1
f 100/95/78 99/94/78 103/99/79
f 98/101/81 102/120/92 101/102/82
s 0
f 109/106/83 114/127/83 115/139/83
f 114/127/83 116/125/83 115/139/83
s 1
f 115/139/83 103/114/87 108/104/83
s 0
f 109/106/83 115/139/83 108/104/83
s 1
f 103/114/87 101/115/88 108/104/83
f 112/107/84 114/127/100 109/106/85
s 0
f 90/109/1 92/140/1 95/110/1
f 96/110/18 91/140/18 89/109/18
f 95/110/1 92/140/1 97/112/1
f 98/112/18 91/140/18 96/110/18
s 1
f 103/114/88 99/113/1 97/112/1
f 102/116/89 98/112/18 100/113/18
f 104/100/80 103/99/79 115/118/90
f 102/120/92 106/141/108 108/121/93
f 109/106/85 110/105/94 107/122/94
f 110/105/95 108/104/109 106/123/96
f 111/124/91 115/139/90 116/125/110
f 113/126/99 116/125/99 114/127/100
f 104/117/89 111/124/101 106/123/101
s 0
f 111/124/101 113/126/101 112/107/101
f 105/108/101 111/124/101 112/107/101
f 105/108/101 107/122/101 106/123/101
s 1
f 106/123/101 102/116/89 104/117/89
