# Blender 4.1.1
# www.blender.org
mtllib LlaveHabiitacion.mtl
o Cube.002
v 2.454309 -0.430386 3.046522
v 2.518342 -0.393969 3.192457
v 2.145097 -0.393969 3.182199
v 2.518342 0.393969 3.192457
v 2.454309 0.430386 3.046522
v 2.145097 0.393969 3.182199
v 1.068857 -0.430386 -0.110975
v 0.759645 -0.393969 0.024702
v 1.004823 -0.393969 -0.256910
v 1.068857 0.430386 -0.110975
v 1.004823 0.393969 -0.256910
v 0.759645 0.393969 0.024702
v 9.144527 -0.430386 0.110975
v 9.453740 -0.393969 -0.024702
v 9.208562 -0.393969 0.256910
v 9.144527 0.430386 0.110975
v 9.208562 0.393969 0.256910
v 9.453740 0.393969 -0.024702
v 7.759076 -0.430386 -3.046522
v 7.695043 -0.393969 -3.192457
v 8.068288 -0.393969 -3.182199
v 7.759076 0.430386 -3.046522
v 8.068288 0.393969 -3.182199
v 7.695043 0.393969 -3.192457
vn 0.4018 -0.0000 0.9157
vn 0.9157 -0.0000 -0.4018
vn -0.0000 1.0000 -0.0000
vn -0.9157 -0.0000 0.4018
vn -0.4018 -0.0000 -0.9157
vn -0.0067 -0.9695 0.2449
vn -0.0067 0.9695 0.2449
vn -0.1848 -0.9695 -0.1609
vn -0.1848 0.9695 -0.1609
vn 0.1848 -0.9695 0.1609
vn 0.1848 0.9695 0.1609
vn 0.0067 -0.9695 -0.2449
vn 0.0067 0.9695 -0.2449
vn -0.0982 -0.9942 0.0431
vn -0.0275 -0.0000 0.9996
vn -0.0982 0.9942 0.0431
vn -0.7542 -0.0000 -0.6566
vn -0.0895 -0.9749 -0.2040
vn -0.0895 0.9749 -0.2040
vn 0.0275 -0.0000 -0.9996
vn 0.0982 -0.9942 -0.0431
vn 0.0982 0.9942 -0.0431
vn 0.7542 -0.0000 0.6566
vn 0.0895 -0.9749 0.2040
vn 0.0895 0.9749 0.2040
vn -0.0000 -1.0000 -0.0000
vt 0.477335 0.960703
vt 0.464381 0.960703
vt 0.464381 0.947750
vt 0.477335 0.947750
vt 0.506839 0.996758
vt 0.428423 0.996758
vt 0.428423 0.918342
vt 0.506839 0.918342
vt 0.406301 0.508721
vt 0.774098 0.508721
vt 0.774098 0.994629
vt 0.406301 0.994629
vt 0.412040 0.901649
vt 0.482054 0.901649
vt 0.482054 0.971662
vt 0.412040 0.971662
vt 0.426755 0.835178
vt 0.458738 0.835178
vt 0.458738 0.988429
vt 0.426755 0.988429
vt 0.138727 0.235455
vt 0.138727 0.246032
vt 0.128150 0.235455
vt 0.734365 0.628892
vt 0.744942 0.639469
vt 0.734365 0.639469
vt 0.539002 0.512658
vt 0.528425 0.512658
vt 0.539002 0.502081
vt 0.344668 0.362265
vt 0.334091 0.372842
vt 0.334091 0.362265
vt 0.767848 0.741504
vt 0.778425 0.741504
vt 0.767848 0.752081
vt 0.560275 1.397877
vt 0.549698 1.397877
vt 0.549698 1.387300
vt 0.367573 0.006609
vt 0.367573 -0.003968
vt 0.378150 0.006609
vt 0.478425 0.811373
vt 0.467848 0.814581
vt 0.467848 0.811373
vt 0.539002 0.741504
vt 0.528425 0.741504
vt 0.505519 0.628892
vt 0.505519 0.639469
vt 0.449383 0.758695
vt 0.449383 0.828102
vt 0.438806 0.828102
vt 0.438806 0.758695
vt 0.734365 0.889469
vt 0.505519 0.889469
vt 0.505519 0.868315
vt 0.734365 0.868315
vt 0.767848 0.512658
vt 0.767848 0.502081
vt 0.468425 0.924467
vt 0.468425 0.993873
vt 0.457848 0.993873
vt 0.457848 0.924467
vt 0.717848 0.931408
vt 0.489002 0.931408
vt 0.489002 0.910254
vt 0.717848 0.910254
vt 0.789002 0.512658
vt 0.789002 0.741504
vt 0.489002 0.817789
vt 0.489002 0.887195
vt 0.467848 0.887195
vt 0.467848 0.817789
vt 0.717848 0.903283
vt 0.489002 0.903283
vt 0.489002 0.882129
vt 0.717848 0.882129
vt 0.539002 0.752081
vt 0.478425 0.893611
vt 0.478425 0.963017
vt 0.467848 0.963017
vt 0.467848 0.893611
vt 0.409002 0.513908
vt 0.771823 0.513908
vt 0.771823 0.991504
vt 0.409002 0.991504
s 0
usemtl TexturaMadera
f 15/1/1 17/2/1 4/3/1 2/4/1
f 21/5/2 23/6/2 18/7/2 14/8/2
f 22/9/3 10/10/3 5/11/3 16/12/3
f 3/13/4 6/14/4 12/15/4 8/16/4
f 9/17/5 11/18/5 24/19/5 20/20/5
f 1/21/6 2/22/6 3/23/6
f 4/24/7 5/25/7 6/26/7
f 7/27/8 8/28/8 9/29/8
f 10/30/9 11/31/9 12/32/9
f 13/33/10 14/34/10 15/35/10
f 16/36/11 17/37/11 18/38/11
f 19/39/12 20/40/12 21/41/12
f 22/42/13 23/43/13 24/44/13
f 7/27/14 1/45/14 3/46/14 8/28/14
f 2/47/15 4/24/15 6/26/15 3/48/15
f 5/49/16 10/50/16 12/51/16 6/52/16
f 11/53/17 9/54/17 8/55/17 12/56/17
f 19/57/18 7/27/18 9/29/18 20/58/18
f 10/59/19 22/60/19 24/61/19 11/62/19
f 23/63/20 21/64/20 20/65/20 24/66/20
f 13/33/21 19/57/21 21/67/21 14/68/21
f 22/69/22 16/70/22 18/71/22 23/72/22
f 17/73/23 15/74/23 14/75/23 18/76/23
f 1/45/24 13/33/24 15/35/24 2/77/24
f 16/78/25 5/79/25 4/80/25 17/81/25
f 7/82/26 19/83/26 13/84/26 1/85/26
o Cylinder
v -4.436926 0.046616 -0.161565
v -4.436669 0.147955 -0.083075
v -4.436625 0.165527 0.032419
v -4.436778 0.105093 0.132398
v -4.437004 0.015776 0.163855
v -4.437248 -0.080545 0.145413
v -4.437442 -0.157128 0.048431
v -4.437417 -0.147336 -0.074753
v -4.437208 -0.064656 -0.151434
v -0.127858 -0.011921 -0.034977
v -0.919996 0.129122 -0.104959
v -0.908755 0.164179 0.032921
v -0.127468 0.033452 -0.007153
v -0.920125 0.079028 0.146889
v -0.920438 -0.048373 0.160694
v -0.127774 0.002179 0.035896
v -0.920670 -0.148230 0.080374
v -0.927983 -0.164305 -0.032417
v -0.127833 -0.037551 0.006968
v -0.920575 -0.106289 -0.130465
v -0.920280 0.016701 -0.166461
vn 0.0029 0.4799 -0.8773
vn 0.0037 0.9691 -0.2467
vn -1.0000 0.0025 -0.0000
vn 0.0035 0.8009 0.5988
vn 0.0029 0.1077 0.9942
vn 0.0023 -0.6268 0.7792
vn 0.0012 -0.9900 0.1410
vn 0.0020 -0.8607 -0.5091
vn 0.0024 -0.2809 -0.9597
vn 0.1468 0.9557 -0.2550
vn 0.1474 -0.2781 -0.9492
vn -0.0022 -0.0907 -0.9959
vn -0.0016 0.6123 -0.7906
vn 0.0004 0.9886 -0.1504
vn 0.0003 0.8558 0.5173
vn -0.0014 0.3322 0.9432
vn -0.0025 -0.1880 0.9822
vn -0.0036 -0.7848 0.6197
vn -0.0039 -0.9968 -0.0792
vn -0.0037 -0.6800 -0.7332
vn 0.1623 0.4856 -0.8590
vn 0.1610 0.7870 0.5955
vn 0.1591 -0.6087 0.7773
vn 0.1480 0.1062 0.9833
vn 0.1605 -0.8510 -0.5000
vn 0.1489 -0.9803 0.1301
vn 1.0000 -0.0052 -0.0002
vt 0.975609 0.618113
vt 0.957669 1.000000
vt 0.857808 0.618113
vt 0.832669 1.000000
vt 0.719065 0.618112
vt 0.311543 0.476079
vt 0.153734 0.466364
vt 0.040272 0.354467
vt 0.025434 0.181825
vt 0.133656 0.046620
vt 0.269204 0.011891
vt 0.393375 0.064681
vt 0.482002 0.203672
vt 0.453379 0.366345
vt 0.604831 1.000000
vt 0.579698 0.618113
vt 0.512817 1.000000
vt 0.454708 0.618113
vt 0.417332 1.000000
vt 0.329710 0.618112
vt 0.296895 1.000000
vt 0.218629 0.618112
vt 0.176418 1.000000
vt 0.107790 0.618113
vt 0.066597 1.000000
vt 0.014666 0.618113
vt 0.976587 0.205295
vt 0.792192 0.258271
vt 0.932294 0.397098
vt 0.774687 0.482952
vt 0.738674 0.292422
vt 0.602834 0.432282
vt 0.000000 1.000000
vt 0.718633 1.000000
vt 0.755771 0.206473
vt 0.862004 0.044265
vt 0.706152 0.241160
vt 0.683686 0.025316
vt 0.544362 0.137749
vt 0.517743 0.296261
s 0
usemtl LlaveTextura
f 45/86/27 25/87/27 35/88/27
f 35/88/28 26/89/28 36/90/28
f 25/91/29 33/92/29 32/93/29 31/94/29 30/95/29 29/96/29 28/97/29 27/98/29 26/99/29
f 28/100/30 38/101/30 36/90/30
f 29/102/31 39/103/31 38/101/31
f 30/104/32 41/105/32 39/103/32
f 31/106/33 42/107/33 41/105/33
f 42/107/34 32/108/34 44/109/34
f 44/109/35 33/110/35 45/111/35
f 36/112/36 37/113/36 35/114/36
f 45/115/37 34/116/37 44/117/37
f 45/111/38 33/110/38 25/118/38
f 35/88/39 25/87/39 26/89/39
f 36/90/40 26/89/40 27/119/40
f 27/119/41 28/100/41 36/90/41
f 28/100/42 29/102/42 38/101/42
f 29/102/43 30/104/43 39/103/43
f 30/104/44 31/106/44 41/105/44
f 42/107/45 31/106/45 32/108/45
f 44/109/46 32/108/46 33/110/46
f 34/116/47 45/115/47 35/114/47 37/113/47
f 40/120/48 37/113/48 36/112/48 38/121/48
f 43/122/49 40/120/49 39/123/49 41/124/49
f 38/121/50 39/123/50 40/120/50
f 43/122/51 42/125/51 44/117/51 34/116/51
f 41/124/52 42/125/52 43/122/52
f 43/122/53 34/116/53 37/113/53 40/120/53
