# Blender 4.1.1
# www.blender.org
mtllib Llaves.mtl
o Cube
v 1.000000 0.000000 1.000000
v 1.000000 0.100000 1.000000
v 1.000000 0.000000 1.000000
v 1.000000 0.100000 1.000000
v 1.000000 0.000000 1.000000
v 1.000000 0.100000 1.000000
v 1.000000 0.000000 1.000000
v 1.000000 0.100000 1.000000
v -0.928898 -0.028443 0.489832
v -0.930657 0.083107 0.562339
v -1.000000 0.083107 0.475518
v -0.930657 0.016893 0.562339
v -0.928898 0.128443 0.489832
v -1.000000 0.016893 0.475518
v -0.928898 -0.028443 -0.489832
v -1.000000 0.083107 -0.475518
v -0.930657 0.083107 -0.562339
v -0.928898 0.128443 -0.489832
v -0.930657 0.016893 -0.562339
v -1.000000 0.016893 -0.475518
v 0.928898 -0.028443 0.910975
v 1.000000 0.027332 1.000000
v 1.000000 0.072668 1.000000
v 0.928898 0.128443 0.910975
v 0.928898 -0.028443 -0.910975
v 0.930657 0.083107 -0.984281
v 1.000000 0.083107 -0.928898
v 0.928898 0.128443 -0.910975
v 1.000000 0.016893 -0.928898
v 0.930657 0.016893 -0.984281
vn 0.2211 -0.0000 -0.9753
vn -1.0000 -0.0000 -0.0000
vn -0.0000 1.0000 -0.0000
vn 1.0000 -0.0000 -0.0000
vn 0.2211 -0.0000 0.9753
vn -0.7209 -0.3856 0.5758
vn -0.7209 0.3856 0.5758
vn -0.7209 -0.3856 -0.5758
vn -0.7209 0.3856 -0.5758
vn 0.5529 -0.4637 -0.6923
vn 0.5529 0.4637 -0.6923
vn -0.8433 -0.5375 -0.0000
vn 0.7814 -0.0000 -0.6241
vn -0.8433 0.5375 -0.0000
vn 0.7814 -0.0000 0.6241
vn -0.1864 -0.5375 -0.8224
vn -0.1864 0.5375 -0.8224
vn -0.6241 -0.0000 0.7814
vn 0.7640 -0.6452 -0.0096
vn 0.7640 0.6452 -0.0096
vn -0.1781 -0.6442 0.7438
vn -0.1781 0.6442 0.7438
vn -0.0000 -1.0000 -0.0000
vt 0.463878 0.750000
vt 0.536122 0.750000
vt 0.447244 0.991332
vt 0.552756 0.991332
vt 0.552756 0.508888
vt 0.447244 0.508888
vt 0.536122 0.750000
vt 0.463878 0.750000
vt 0.375000 0.750000
vt 0.625000 0.750000
vt 0.012920 0.034811
vt 0.991112 0.039805
vt 0.991112 0.966445
vt 0.012920 0.971439
vt 0.552756 0.016260
vt 0.447244 0.016260
vt 0.447244 0.233740
vt 0.552756 0.233740
vt 0.552756 0.258668
vt 0.447244 0.258668
vt 0.447244 0.491332
vt 0.552756 0.491332
vt 0.375000 0.012986
vt 0.552756 0.000000
vt 0.447244 0.000000
vt 0.625000 0.012986
vt 0.375000 0.237014
vt 0.552756 0.250000
vt 0.625000 0.237014
vt 0.447244 0.250000
vt 0.375000 0.489147
vt 0.552756 0.498084
vt 0.625000 0.489147
vt 0.447244 0.498084
vt 0.375000 0.256923
vt 0.625000 0.256923
vt 0.366112 0.740189
vt 0.366112 0.509811
vt 0.633888 0.509811
vt 0.633888 0.740189
vt 0.133888 0.735195
vt 0.133668 0.750000
vt 0.866112 0.735195
vt 0.866332 0.750000
vt 0.000823 0.008555
vt 0.999177 0.003561
vt 0.999177 1.008939
vt 0.000823 1.003945
s 0
usemtl LlaveTextura
f 22/1/1 23/2/1 12/3/1 10/4/1
f 27/5/2 29/6/2 23/7/2 22/8/2
f 23/7/2 22/8/2 1/9/2 2/10/2
f 28/11/3 18/12/3 13/13/3 24/14/3
f 11/15/4 14/16/4 20/17/4 16/18/4
f 17/19/5 19/20/5 30/21/5 26/22/5
f 2/10/3 1/9/3 3/9/3 4/10/3
f 4/10/3 3/9/3 5/9/3 6/10/3
f 6/10/3 5/9/3 7/9/3 8/10/3
f 9/23/6 10/24/6 11/15/6
f 12/25/7 13/26/7 14/16/7
f 15/27/8 16/18/8 17/28/8
f 18/29/9 19/30/9 20/17/9
f 25/31/10 26/22/10 27/32/10
f 28/33/11 29/34/11 30/21/11
f 15/27/12 9/23/12 11/15/12 16/18/12
f 10/24/13 12/25/13 14/16/13 11/15/13
f 13/26/14 18/29/14 20/17/14 14/16/14
f 19/20/15 17/19/15 16/18/15 20/17/15
f 25/31/16 15/35/16 17/19/16 26/22/16
f 18/36/17 28/33/17 30/21/17 19/20/17
f 29/6/18 27/5/18 26/22/18 30/21/18
f 21/37/19 25/38/19 27/5/19 22/8/19
f 28/39/20 24/40/20 23/7/20 29/6/20
f 9/41/21 21/37/21 22/9/21 10/42/21
f 24/40/22 13/43/22 12/44/22 23/10/22
f 15/45/23 25/46/23 21/47/23 9/48/23
o Cylinder
v -4.436926 0.046616 -0.161565
v -4.436669 0.147955 -0.083075
v -4.436625 0.165527 0.032419
v -4.436778 0.105093 0.132398
v -4.437004 0.015776 0.163855
v -4.437248 -0.080545 0.145413
v -4.437442 -0.157128 0.048431
v -4.437417 -0.147336 -0.074753
v -4.437208 -0.064656 -0.151434
v -0.127858 -0.011921 -0.034977
v -0.919996 0.129122 -0.104959
v -0.908755 0.164179 0.032921
v -0.127468 0.033452 -0.007153
v -0.920125 0.079028 0.146889
v -0.920438 -0.048373 0.160694
v -0.127774 0.002179 0.035896
v -0.920670 -0.148230 0.080374
v -0.927983 -0.164305 -0.032417
v -0.127833 -0.037551 0.006968
v -0.920575 -0.106289 -0.130465
v -0.920280 0.016701 -0.166461
vn 0.0029 0.4799 -0.8773
vn 0.0037 0.9691 -0.2467
vn -1.0000 0.0025 -0.0000
vn 0.0035 0.8009 0.5988
vn 0.0029 0.1077 0.9942
vn 0.0023 -0.6268 0.7792
vn 0.0012 -0.9900 0.1410
vn 0.0020 -0.8607 -0.5091
vn 0.0024 -0.2809 -0.9597
vn 0.1468 0.9557 -0.2550
vn 0.1474 -0.2781 -0.9492
vn -0.0022 -0.0907 -0.9959
vn -0.0016 0.6123 -0.7906
vn 0.0004 0.9886 -0.1504
vn 0.0003 0.8558 0.5173
vn -0.0014 0.3322 0.9432
vn -0.0025 -0.1880 0.9822
vn -0.0036 -0.7848 0.6197
vn -0.0039 -0.9968 -0.0792
vn -0.0037 -0.6800 -0.7332
vn 0.1623 0.4856 -0.8590
vn 0.1610 0.7870 0.5955
vn 0.1591 -0.6087 0.7773
vn 0.1480 0.1062 0.9833
vn 0.1605 -0.8510 -0.5000
vn 0.1489 -0.9803 0.1300
vn 1.0000 -0.0052 -0.0002
vt 0.975609 0.618113
vt 0.957669 1.000000
vt 0.857808 0.618113
vt 0.832669 1.000000
vt 0.719065 0.618112
vt 0.311543 0.476079
vt 0.153734 0.466364
vt 0.040272 0.354467
vt 0.025434 0.181825
vt 0.133656 0.046620
vt 0.269204 0.011891
vt 0.393375 0.064681
vt 0.482002 0.203672
vt 0.453379 0.366345
vt 0.604831 1.000000
vt 0.579698 0.618113
vt 0.512817 1.000000
vt 0.454708 0.618113
vt 0.417332 1.000000
vt 0.329710 0.618112
vt 0.296895 1.000000
vt 0.218629 0.618112
vt 0.176418 1.000000
vt 0.107790 0.618113
vt 0.066597 1.000000
vt 0.014666 0.618113
vt 0.976587 0.205295
vt 0.792192 0.258271
vt 0.932294 0.397098
vt 0.774687 0.482952
vt 0.738674 0.292422
vt 0.602834 0.432282
vt 0.000000 1.000000
vt 0.718633 1.000000
vt 0.755771 0.206473
vt 0.862004 0.044265
vt 0.706152 0.241160
vt 0.683686 0.025316
vt 0.544362 0.137749
vt 0.517743 0.296261
s 0
usemtl LlaveTextura
f 51/49/24 31/50/24 41/51/24
f 41/51/25 32/52/25 42/53/25
f 31/54/26 39/55/26 38/56/26 37/57/26 36/58/26 35/59/26 34/60/26 33/61/26 32/62/26
f 34/63/27 44/64/27 42/53/27
f 35/65/28 45/66/28 44/64/28
f 36/67/29 47/68/29 45/66/29
f 37/69/30 48/70/30 47/68/30
f 48/70/31 38/71/31 50/72/31
f 50/72/32 39/73/32 51/74/32
f 42/75/33 43/76/33 41/77/33
f 51/78/34 40/79/34 50/80/34
f 51/74/35 39/73/35 31/81/35
f 41/51/36 31/50/36 32/52/36
f 42/53/37 32/52/37 33/82/37
f 33/82/38 34/63/38 42/53/38
f 34/63/39 35/65/39 44/64/39
f 35/65/40 36/67/40 45/66/40
f 36/67/41 37/69/41 47/68/41
f 48/70/42 37/69/42 38/71/42
f 50/72/43 38/71/43 39/73/43
f 40/79/44 51/78/44 41/77/44 43/76/44
f 46/83/45 43/76/45 42/75/45 44/84/45
f 49/85/46 46/83/46 45/86/46 47/87/46
f 44/84/47 45/86/47 46/83/47
f 49/85/48 48/88/48 50/80/48 40/79/48
f 47/87/49 48/88/49 49/85/49
f 49/85/50 40/79/50 43/76/50 46/83/50
o Cube.001
v -4.808088 0.041488 -1.293148
v -4.808088 -0.041488 -1.293148
v -4.808088 0.041488 1.315853
v -4.808088 -0.041488 1.315853
v -4.630132 -0.041488 -1.293148
v -4.630132 0.041488 1.315853
v -4.630132 0.041488 -1.293148
v -4.630132 -0.041488 1.315853
v -5.437779 0.041488 -1.021911
v -5.437779 -0.041488 -1.021911
v -3.898534 0.041488 -1.021911
v -3.898534 -0.041488 -1.021911
v -4.808088 -0.041488 -1.021911
v -4.808088 0.041488 -1.021911
v -4.630132 -0.041488 -1.021911
v -4.630132 0.041488 -1.021911
v -5.437779 0.041488 0.882499
v -3.898534 -0.041488 0.882499
v -4.808088 -0.041488 0.882499
v -4.808088 0.041488 0.882499
v -4.630132 -0.041488 0.882499
v -4.630132 0.041488 0.882499
v -5.437779 -0.041488 0.882499
v -3.898534 0.041488 0.882499
v -4.090219 -0.041488 -1.293148
v -4.090219 0.041488 1.315853
v -4.090219 0.041488 -1.293148
v -4.090219 -0.041488 1.315853
v -4.090219 -0.041488 -1.021911
v -4.090219 0.041488 -1.021911
v -4.090219 -0.041488 0.882499
v -4.090219 0.041488 0.882499
v -5.253114 0.041488 -1.293148
v -5.253114 -0.041488 1.315853
v -5.253114 -0.041488 -1.293148
v -5.253114 0.041488 1.315853
v -5.253114 0.041488 -1.021911
v -5.253114 -0.041488 -1.021911
v -5.253114 0.041488 0.882499
v -5.253114 -0.041488 0.882499
vn -0.0000 1.0000 -0.0000
vn -0.0000 -0.0000 -1.0000
vn -0.0000 -0.0000 1.0000
vn -0.0000 -1.0000 -0.0000
vn -1.0000 -0.0000 -0.0000
vn 1.0000 -0.0000 -0.0000
vt 0.181348 0.769345
vt 0.414570 0.769345
vt 0.414570 0.903331
vt 0.181348 0.903331
vt 0.375000 0.279993
vt 0.625000 0.279993
vt 0.625000 0.352273
vt 0.375000 0.352273
vt 0.375000 0.781133
vt 0.625000 0.781133
vt 0.625000 0.868824
vt 0.375000 0.868824
vt 0.656133 0.708475
vt 0.743824 0.708475
vt 0.743824 0.750000
vt 0.656133 0.750000
vt 0.656133 0.500000
vt 0.743824 0.500000
vt 0.743824 0.525990
vt 0.656133 0.525990
vt 0.181348 0.096669
vt 0.414570 0.096669
vt 0.414570 0.180531
vt 0.181348 0.180531
vt 0.375000 0.041525
vt 0.625000 0.041525
vt 0.625000 0.224009
vt 0.375000 0.224009
vt 0.507831 0.180531
vt 0.507831 0.769345
vt 0.772727 0.525990
vt 0.772727 0.708475
vt 0.845007 0.525990
vt 0.875000 0.525990
vt 0.875000 0.708475
vt 0.845007 0.708475
vt 0.790779 0.180531
vt 0.891234 0.180531
vt 0.891234 0.769345
vt 0.790779 0.769345
vt 0.375000 0.525990
vt 0.625000 0.525990
vt 0.625000 0.708475
vt 0.375000 0.708475
vt 0.507831 0.096669
vt 0.790779 0.096669
vt 0.790779 0.903331
vt 0.507831 0.903331
vt 0.375000 0.381176
vt 0.625000 0.381176
vt 0.625000 0.468867
vt 0.375000 0.468867
vt 0.084572 0.180531
vt 0.084572 0.769345
vt 0.772727 0.500000
vt 0.845007 0.500000
vt 0.845007 0.750000
vt 0.772727 0.750000
vt 0.375000 0.897727
vt 0.625000 0.897727
vt 0.625000 0.970007
vt 0.375000 0.970007
s 0
usemtl LlaveTextura
f 90/89/51 87/92/51 54/91/51 71/90/51
f 84/93/52 52/96/52 53/95/52 86/94/52
f 77/97/53 57/100/53 59/99/53 79/98/53
f 82/101/54 79/104/54 59/103/54 72/102/54
f 76/105/54 80/108/54 66/107/54 56/106/54
f 84/109/51 88/112/51 65/111/51 52/110/51
f 68/113/55 60/116/55 61/115/55 74/114/55
f 65/111/51 71/90/51 73/118/51 67/117/51
f 80/108/54 82/101/54 72/102/54 66/107/54
f 88/112/51 90/89/51 71/90/51 65/111/51
f 66/107/54 72/102/54 70/120/54 64/119/54
f 89/121/54 91/124/54 74/123/54 61/122/54
f 81/125/51 83/128/51 75/127/51 62/126/51
f 62/129/56 75/132/56 69/131/56 63/130/56
f 67/117/51 73/118/51 83/128/51 81/125/51
f 63/130/54 69/131/54 82/101/54 80/108/54
f 58/133/51 67/117/51 81/125/51 78/134/51
f 73/118/51 57/136/51 77/135/51 83/128/51
f 58/137/52 78/140/52 76/139/52 56/138/52
f 64/119/54 70/120/54 91/124/54 89/121/54
f 60/141/51 68/142/51 90/89/51 88/112/51
f 53/143/54 64/119/54 89/121/54 86/144/54
f 70/120/54 55/146/54 85/145/54 91/124/54
f 54/147/53 87/150/53 85/149/53 55/148/53
o Cube.002
v 2.454309 -0.430386 3.046522
v 2.518342 -0.393969 3.192457
v 2.145097 -0.393969 3.182199
v 2.518342 0.393969 3.192457
v 2.454309 0.430386 3.046522
v 2.145097 0.393969 3.182199
v 1.068857 -0.430386 -0.110975
v 0.759645 -0.393969 0.024702
v 1.004823 -0.393969 -0.256910
v 1.068857 0.430386 -0.110975
v 1.004823 0.393969 -0.256910
v 0.759645 0.393969 0.024702
v 9.144527 -0.430386 0.110975
v 9.453740 -0.393969 -0.024702
v 9.208562 -0.393969 0.256910
v 9.144527 0.430386 0.110975
v 9.208562 0.393969 0.256910
v 9.453740 0.393969 -0.024702
v 7.759076 -0.430386 -3.046522
v 7.695043 -0.393969 -3.192457
v 8.068288 -0.393969 -3.182199
v 7.759076 0.430386 -3.046522
v 8.068288 0.393969 -3.182199
v 7.695043 0.393969 -3.192457
vn 0.4018 -0.0000 0.9157
vn 0.9157 -0.0000 -0.4018
vn -0.0000 1.0000 -0.0000
vn -0.9157 -0.0000 0.4018
vn -0.4018 -0.0000 -0.9157
vn -0.0067 -0.9695 0.2449
vn -0.0067 0.9695 0.2449
vn -0.1848 -0.9695 -0.1609
vn -0.1848 0.9695 -0.1609
vn 0.1848 -0.9695 0.1609
vn 0.1848 0.9695 0.1609
vn 0.0067 -0.9695 -0.2449
vn 0.0067 0.9695 -0.2449
vn -0.0982 -0.9942 0.0431
vn -0.0275 -0.0000 0.9996
vn -0.0982 0.9942 0.0431
vn -0.7542 -0.0000 -0.6566
vn -0.0895 -0.9749 -0.2040
vn -0.0895 0.9749 -0.2040
vn 0.0275 -0.0000 -0.9996
vn 0.0982 -0.9942 -0.0431
vn 0.0982 0.9942 -0.0431
vn 0.7542 -0.0000 0.6566
vn 0.0895 -0.9749 0.2040
vn 0.0895 0.9749 0.2040
vn -0.0000 -1.0000 -0.0000
vt 0.080577 0.763702
vt 0.309423 0.763702
vt 0.309423 0.992548
vt 0.080577 0.992548
vt 0.050577 0.741827
vt 0.279423 0.741827
vt 0.279423 0.970673
vt 0.050577 0.970673
vt 0.035577 0.010577
vt 0.979423 0.010577
vt 0.979423 0.992548
vt 0.035577 0.992548
vt 0.385577 0.010577
vt 0.614423 0.010577
vt 0.614423 0.239423
vt 0.385577 0.239423
vt 0.070577 0.751202
vt 0.299423 0.751202
vt 0.299423 0.980048
vt 0.070577 0.980048
vt 0.135577 0.739423
vt 0.135577 0.750000
vt 0.125000 0.739423
vt 0.614423 0.000000
vt 0.625000 0.010577
vt 0.135577 0.510577
vt 0.125000 0.510577
vt 0.135577 0.500000
vt 0.625000 0.239423
vt 0.614423 0.250000
vt 0.364423 0.739423
vt 0.375000 0.739423
vt 0.364423 0.750000
vt 0.160000 0.891827
vt 0.149423 0.891827
vt 0.149423 0.881250
vt 0.364423 0.510577
vt 0.364423 0.500000
vt 0.375000 0.510577
vt 0.075000 0.809292
vt 0.064423 0.812500
vt 0.064423 0.809292
vt 0.385577 0.000000
vt 0.075000 0.664064
vt 0.075000 0.733470
vt 0.064423 0.733470
vt 0.064423 0.664064
vt 0.614423 0.260577
vt 0.385577 0.260577
vt 0.075000 0.739886
vt 0.064423 0.739886
vt 0.314423 0.929327
vt 0.085577 0.929327
vt 0.085577 0.908173
vt 0.314423 0.908173
vt 0.385577 0.510577
vt 0.385577 0.739423
vt 0.085577 0.815708
vt 0.085577 0.885114
vt 0.064423 0.885114
vt 0.064423 0.815708
vt 0.314423 0.901202
vt 0.085577 0.901202
vt 0.085577 0.880048
vt 0.314423 0.880048
vt 0.075000 0.891530
vt 0.075000 0.960936
vt 0.064423 0.960936
vt 0.064423 0.891530
vt 0.005577 0.016827
vt 0.989423 0.016827
vt 0.989423 0.989423
vt 0.005577 0.989423
s 0
usemtl TexturaMadera
f 106/151/57 108/152/57 95/153/57 93/154/57
f 112/155/58 114/156/58 109/157/58 105/158/58
f 113/159/59 101/160/59 96/161/59 107/162/59
f 94/163/60 97/164/60 103/165/60 99/166/60
f 100/167/61 102/168/61 115/169/61 111/170/61
f 92/171/62 93/172/62 94/173/62
f 95/174/63 96/175/63 97/164/63
f 98/176/64 99/177/64 100/178/64
f 101/179/65 102/180/65 103/165/65
f 104/181/66 105/182/66 106/183/66
f 107/184/67 108/185/67 109/186/67
f 110/187/68 111/188/68 112/189/68
f 113/190/69 114/191/69 115/192/69
f 98/176/70 92/171/70 94/173/70 99/177/70
f 93/193/71 95/174/71 97/164/71 94/163/71
f 96/194/72 101/195/72 103/196/72 97/197/72
f 102/198/73 100/199/73 99/166/73 103/165/73
f 110/187/74 98/176/74 100/178/74 111/188/74
f 101/200/75 113/190/75 115/192/75 102/201/75
f 114/202/76 112/203/76 111/204/76 115/205/76
f 104/181/77 110/187/77 112/206/77 105/207/77
f 113/208/78 107/209/78 109/210/78 114/211/78
f 108/212/79 106/213/79 105/214/79 109/215/79
f 92/171/80 104/181/80 106/183/80 93/172/80
f 107/216/81 96/217/81 95/218/81 108/219/81
f 98/220/82 110/221/82 104/222/82 92/223/82
