# Blender 4.1.1
# www.blender.org
mtllib Monitoooor.mtl
o Cube
v 2.438923 2.604025 -0.640095
v 2.440831 2.602194 -0.541116
v -0.789991 2.595856 -0.578017
v -0.788083 2.594024 -0.479037
v 2.443103 0.680965 -0.675757
v 2.445011 0.679133 -0.576777
v -0.785811 0.672795 -0.613679
v -0.783903 0.670964 -0.514699
vn -0.0022 0.9998 0.0185
vn -0.9998 -0.0025 0.0192
vn 0.0022 -0.9998 -0.0185
vn 0.9998 0.0025 -0.0192
vn -0.0193 0.0185 -0.9996
vn 0.0193 -0.0185 0.9996
vt 0.451213 0.618263
vt 0.548787 0.618263
vt 0.548787 0.661244
vt 0.451213 0.661244
vt 0.548787 0.704225
vt 0.451213 0.704225
vt 0.548787 0.747206
vt 0.451213 0.747206
vt 0.548787 0.790187
vt 0.451213 0.790187
vt 0.522059 0.647887
vt 0.772059 0.647887
vt 0.772059 0.897887
vt 0.522059 0.897887
vt 0.597059 0.626761
vt 0.847059 0.626761
vt 0.847059 0.876761
vt 0.597059 0.876761
s 0
usemtl TexturaMonitor.001
f 1/1/1 3/4/1 4/3/1 2/2/1
f 3/4/2 7/6/2 8/5/2 4/3/2
f 7/6/3 5/8/3 6/7/3 8/5/3
f 5/8/4 1/10/4 2/9/4 6/7/4
f 3/11/5 1/14/5 5/13/5 7/12/5
f 8/15/6 6/18/6 2/17/6 4/16/6
o Cube.001
v -0.043482 0.917553 -0.553215
v -0.044448 1.987676 -0.560411
v -0.047425 0.916432 -0.719363
v -0.048392 1.986555 -0.726560
v 1.720647 0.918864 -0.595094
v 1.719681 1.988987 -0.602290
v 1.716704 0.917743 -0.761242
v 1.710386 1.982402 -0.762684
vn -0.9997 -0.0007 0.0237
vn -0.0221 -0.0041 -0.9997
vn 0.9992 0.0032 -0.0406
vn 0.0237 0.0067 0.9997
vn 0.0009 -1.0000 0.0067
vn 0.0003 0.9997 -0.0236
vt 0.477234 0.723083
vt 0.522766 0.723083
vt 0.522766 0.793062
vt 0.477234 0.793062
vt 0.491176 0.620892
vt 0.741176 0.620892
vt 0.741176 0.870892
vt 0.491176 0.870892
vt 0.477234 0.863041
vt 0.522766 0.863041
vt 0.522766 0.933020
vt 0.477234 0.933020
vt 0.375000 0.750000
vt 0.625000 0.750000
vt 0.625000 1.000000
vt 0.375000 1.000000
vt 0.431702 0.863041
vt 0.431702 0.933020
vt 0.568298 0.863041
vt 0.568298 0.933020
s 0
usemtl TexturaMonitor2
f 9/19/7 10/20/7 12/21/7 11/22/7
f 11/23/8 12/24/8 16/25/8 15/26/8
f 15/27/9 16/28/9 14/29/9 13/30/9
f 13/31/10 14/32/10 10/33/10 9/34/10
f 11/35/11 15/27/11 13/30/11 9/36/11
f 16/28/12 12/37/12 10/38/12 14/29/12
o Cube.002
v 2.293540 2.482421 -0.554169
v 2.293965 2.482014 -0.532119
v -0.642601 2.474993 -0.497719
v -0.642176 2.474585 -0.475670
v 2.297196 0.800404 -0.585360
v 2.297621 0.799996 -0.563311
v -0.638944 0.792975 -0.528911
v -0.638520 0.792567 -0.506861
vn -0.0022 0.9998 0.0185
vn -0.9998 -0.0025 0.0192
vn 0.0022 -0.9998 -0.0185
vn 0.9998 0.0025 -0.0192
vn -0.0193 0.0185 -0.9996
vn 0.0193 -0.0185 0.9996
vt 0.375000 0.000000
vt 0.625000 0.000000
vt 0.625000 0.250000
vt 0.375000 0.250000
vt 0.625000 0.500000
vt 0.375000 0.500000
vt 0.625000 0.750000
vt 0.375000 0.750000
vt 0.625000 1.000000
vt 0.375000 1.000000
vt 0.125000 0.500000
vt 0.125000 0.750000
vt 0.420385 0.552742
vt 0.869518 0.552742
vt 0.869518 0.987909
vt 0.420385 0.987909
s 0
usemtl TexturaPantalla
f 17/39/13 19/42/13 20/41/13 18/40/13
f 19/42/14 23/44/14 24/43/14 20/41/14
f 23/44/15 21/46/15 22/45/15 24/43/15
f 21/46/16 17/48/16 18/47/16 22/45/16
f 19/49/17 17/50/17 21/46/17 23/44/17
f 24/51/18 22/54/18 18/53/18 20/52/18
