# Blender 4.1.1
# www.blender.org
mtllib Soporte.mtl
o Cylinder
v 0.628758 0.941915 -0.615282
v 0.685650 0.134360 -0.645302
v 0.856507 0.133462 -0.645344
v 0.753188 0.941600 -0.638696
v 1.042307 0.939723 -0.614066
v 1.027913 0.132305 -0.627715
v 1.096795 0.131553 -0.600800
v 1.100952 0.939030 -0.587512
v 1.035570 0.131587 -0.580891
v 0.745499 0.133220 -0.588369
v 0.976523 0.939345 -0.564098
v 0.687404 0.941222 -0.588728
v 0.624425 0.134393 -0.625393
vn -0.0002 0.0082 -1.0000
vn -0.0259 -0.0227 0.9994
vn -0.0053 -0.9999 -0.0145
vn 0.0915 0.0175 -0.9957
vn 0.3867 0.0109 -0.9221
vn 0.2272 -0.0104 0.9738
vn -0.3336 -0.0168 0.9426
vn -0.2272 0.0202 -0.9736
vn -0.0849 -0.0057 0.9964
vn 0.0053 0.9999 0.0145
vt 0.549854 0.910533
vt 0.539051 0.750660
vt 0.558474 0.750660
vt 0.472953 0.910533
vt 0.450146 0.750660
vt 0.481573 0.750660
vt 0.539350 0.594919
vt 0.514205 0.616886
vt 0.508654 0.701833
vt 0.537551 0.746528
vt 0.562697 0.724561
vt 0.574913 0.672593
vt 0.564347 0.620317
vt 0.520024 0.750660
vt 0.518427 0.910533
vt 0.500600 0.750660
vt 0.499400 0.910533
vt 0.424923 0.750660
vt 0.441526 0.910533
vt 0.425070 0.910533
vt 0.574930 0.750660
vt 0.575077 0.910533
vt 0.485796 0.616886
vt 0.491346 0.701833
vt 0.462449 0.746528
vt 0.437304 0.724561
vt 0.431753 0.639613
vt 0.460650 0.594919
s 0
usemtl CuelloPCTextura
f 4/1/1 3/2/1 2/3/1
f 11/4/2 10/5/2 9/6/2
f 7/7/3 9/8/3 10/9/3 13/10/3 2/11/3 3/12/3 6/13/3
f 6/14/4 3/2/4 4/1/4 5/15/4
f 7/16/5 6/14/5 5/15/5 8/17/5
f 9/6/6 7/16/6 8/17/6 11/4/6
f 13/18/7 10/5/7 12/19/7 1/20/7
f 2/3/8 13/21/8 1/22/8 4/1/8
f 11/4/9 12/19/9 10/5/9
f 5/23/10 4/24/10 1/25/10 12/26/10 11/27/10 8/28/10
o Cube.006
v -0.097664 0.144698 0.299568
v -0.097664 0.129296 0.299568
v -0.097664 0.144698 -1.700432
v -0.097664 0.129296 -1.700432
v 1.902336 0.144698 0.299568
v 1.902336 0.129296 0.299568
v 1.902336 0.144698 -1.700432
v 1.902336 0.129296 -1.700432
vn -1.0000 -0.0000 -0.0000
vn -0.0000 -0.0000 -1.0000
vn 1.0000 -0.0000 -0.0000
vn -0.0000 -0.0000 1.0000
vn -0.0000 1.0000 -0.0000
vn -0.0000 -1.0000 -0.0000
vt 0.375000 0.000000
vt 0.625000 0.000000
vt 0.625000 0.250000
vt 0.375000 0.250000
vt 0.625000 0.500000
vt 0.375000 0.500000
vt 0.625000 0.750000
vt 0.375000 0.750000
vt 0.625000 1.000000
vt 0.375000 1.000000
vt 0.520822 0.666732
vt 0.770822 0.666732
vt 0.770822 0.916732
vt 0.520822 0.916732
vt 0.526045 0.666732
vt 0.776045 0.666732
vt 0.776045 0.916732
vt 0.526045 0.916732
s 0
usemtl Material
f 14/29/11 16/32/11 17/31/11 15/30/11
f 16/32/12 20/34/12 21/33/12 17/31/12
f 20/34/13 18/36/13 19/35/13 21/33/13
f 18/36/14 14/38/14 15/37/14 19/35/14
f 16/39/15 14/42/15 18/41/15 20/40/15
f 21/43/16 19/46/16 15/45/16 17/44/16
