# Blender 4.1.1
# www.blender.org
mtllib teclado.mtl
o Cube.003
v -0.231369 -0.049582 1.831558
v -0.231369 0.020794 1.831558
v -0.231369 -0.049582 1.081787
v -0.231369 0.020794 1.081787
v 1.906203 -0.049582 1.831558
v 1.906203 0.020794 1.831558
v 1.906203 -0.049582 1.081787
v 1.906203 0.020794 1.081787
vn -1.0000 -0.0000 -0.0000
vn -0.0000 -0.0000 -1.0000
vn 1.0000 -0.0000 -0.0000
vn -0.0000 -0.0000 1.0000
vn -0.0000 -1.0000 -0.0000
vn -0.0000 1.0000 -0.0000
vt 0.514706 0.611483
vt 0.577099 0.611483
vt 0.575932 0.681328
vt 0.514706 0.681328
vt 0.375000 0.250000
vt 0.620322 0.250000
vt 0.625000 0.500000
vt 0.375000 0.500000
vt 0.514706 0.751174
vt 0.577099 0.751174
vt 0.577099 0.821019
vt 0.514706 0.821019
vt 0.577099 0.890864
vt 0.514706 0.890864
vt 0.452313 0.751174
vt 0.452313 0.821019
vt 0.994717 0.484455
vt 0.609551 0.486321
vt 0.608115 0.260072
vt 0.993281 0.261163
s 0
usemtl TexturaTeclado
f 1/1/1 2/2/1 4/3/1 3/4/1
f 3/5/2 4/6/2 8/7/2 7/8/2
f 7/9/3 8/10/3 6/11/3 5/12/3
f 5/12/4 6/11/4 2/13/4 1/14/4
f 3/15/5 7/9/5 5/12/5 1/16/5
f 8/17/6 4/18/6 2/19/6 6/20/6
