# Blender 4.1.1
# www.blender.org
mtllib ModeloComputadora.mtl
o Cube
v 2.438923 2.604025 -0.640095
v 2.440831 2.602194 -0.541116
v -0.789991 2.595856 -0.578017
v -0.788083 2.594024 -0.479037
v 2.443103 0.680965 -0.675757
v 2.445011 0.679133 -0.576777
v -0.785811 0.672795 -0.613679
v -0.783903 0.670964 -0.514699
vn -0.0022 0.9998 0.0185
vn -0.9998 -0.0025 0.0192
vn 0.0022 -0.9998 -0.0185
vn 0.9998 0.0025 -0.0192
vn -0.0193 0.0185 -0.9996
vn 0.0193 -0.0185 0.9996
vt 0.451213 0.618263
vt 0.548787 0.618263
vt 0.548787 0.661244
vt 0.451213 0.661244
vt 0.548787 0.704225
vt 0.451213 0.704225
vt 0.548787 0.747206
vt 0.451213 0.747206
vt 0.548787 0.790187
vt 0.451213 0.790187
vt 0.522059 0.647887
vt 0.772059 0.647887
vt 0.772059 0.897887
vt 0.522059 0.897887
vt 0.597059 0.626761
vt 0.847059 0.626761
vt 0.847059 0.876761
vt 0.597059 0.876761
s 0
usemtl TexturaMonitor.001
f 1/1/1 3/4/1 4/3/1 2/2/1
f 3/4/2 7/6/2 8/5/2 4/3/2
f 7/6/3 5/8/3 6/7/3 8/5/3
f 5/8/4 1/10/4 2/9/4 6/7/4
f 3/11/5 1/14/5 5/13/5 7/12/5
f 8/15/6 6/18/6 2/17/6 4/16/6
o Cube.001
v -0.043482 0.917553 -0.553215
v -0.044448 1.987676 -0.560411
v -0.047425 0.916432 -0.719363
v -0.048392 1.986555 -0.726560
v 1.720647 0.918864 -0.595094
v 1.719681 1.988987 -0.602290
v 1.716704 0.917743 -0.761242
v 1.710386 1.982402 -0.762684
vn -0.9997 -0.0007 0.0237
vn -0.0221 -0.0041 -0.9997
vn 0.9992 0.0032 -0.0406
vn 0.0237 0.0067 0.9997
vn 0.0009 -1.0000 0.0067
vn 0.0003 0.9997 -0.0236
vt 0.477234 0.723083
vt 0.522766 0.723083
vt 0.522766 0.793062
vt 0.477234 0.793062
vt 0.491176 0.620892
vt 0.741176 0.620892
vt 0.741176 0.870892
vt 0.491176 0.870892
vt 0.477234 0.863041
vt 0.522766 0.863041
vt 0.522766 0.933020
vt 0.477234 0.933020
vt 0.375000 0.750000
vt 0.625000 0.750000
vt 0.625000 1.000000
vt 0.375000 1.000000
vt 0.431702 0.863041
vt 0.431702 0.933020
vt 0.568298 0.863041
vt 0.568298 0.933020
s 0
usemtl TexturaMonitor2
f 9/19/7 10/20/7 12/21/7 11/22/7
f 11/23/8 12/24/8 16/25/8 15/26/8
f 15/27/9 16/28/9 14/29/9 13/30/9
f 13/31/10 14/32/10 10/33/10 9/34/10
f 11/35/11 15/27/11 13/30/11 9/36/11
f 16/28/12 12/37/12 10/38/12 14/29/12
o Cube.002
v 2.293540 2.482421 -0.554169
v 2.293965 2.482014 -0.532119
v -0.642601 2.474993 -0.497719
v -0.642176 2.474585 -0.475670
v 2.297196 0.800404 -0.585360
v 2.297621 0.799996 -0.563311
v -0.638944 0.792975 -0.528911
v -0.638520 0.792567 -0.506861
vn -0.0022 0.9998 0.0185
vn -0.9998 -0.0025 0.0192
vn 0.0022 -0.9998 -0.0185
vn 0.9998 0.0025 -0.0192
vn -0.0193 0.0185 -0.9996
vn 0.0193 -0.0185 0.9996
vt 0.375000 0.000000
vt 0.625000 0.000000
vt 0.625000 0.250000
vt 0.375000 0.250000
vt 0.625000 0.500000
vt 0.375000 0.500000
vt 0.625000 0.750000
vt 0.375000 0.750000
vt 0.625000 1.000000
vt 0.375000 1.000000
vt 0.125000 0.500000
vt 0.125000 0.750000
vt 0.420385 0.552742
vt 0.869518 0.552742
vt 0.869518 0.987909
vt 0.420385 0.987909
s 0
usemtl TexturaPantalla
f 17/39/13 19/42/13 20/41/13 18/40/13
f 19/42/14 23/44/14 24/43/14 20/41/14
f 23/44/15 21/46/15 22/45/15 24/43/15
f 21/46/16 17/48/16 18/47/16 22/45/16
f 19/49/17 17/50/17 21/46/17 23/44/17
f 24/51/18 22/54/18 18/53/18 20/52/18
o Cylinder
v 0.628758 0.941915 -0.615282
v 0.685650 0.134360 -0.645302
v 0.856507 0.133462 -0.645344
v 0.753188 0.941600 -0.638696
v 1.042307 0.939723 -0.614066
v 1.027913 0.132305 -0.627715
v 1.096795 0.131553 -0.600800
v 1.100952 0.939030 -0.587512
v 1.035570 0.131587 -0.580891
v 0.745499 0.133220 -0.588369
v 0.976523 0.939345 -0.564098
v 0.687404 0.941222 -0.588728
v 0.624425 0.134393 -0.625393
vn -0.0002 0.0082 -1.0000
vn -0.0259 -0.0227 0.9994
vn -0.0053 -0.9999 -0.0145
vn 0.0915 0.0175 -0.9957
vn 0.3867 0.0109 -0.9221
vn 0.2272 -0.0104 0.9738
vn -0.3336 -0.0168 0.9426
vn -0.2272 0.0202 -0.9736
vn -0.0849 -0.0057 0.9964
vn 0.0053 0.9999 0.0145
vt 0.549854 0.910533
vt 0.539051 0.750660
vt 0.558474 0.750660
vt 0.472953 0.910533
vt 0.450146 0.750660
vt 0.481573 0.750660
vt 0.539350 0.594919
vt 0.514205 0.616886
vt 0.508654 0.701833
vt 0.537551 0.746528
vt 0.562697 0.724561
vt 0.574913 0.672593
vt 0.564347 0.620317
vt 0.520024 0.750660
vt 0.518427 0.910533
vt 0.500600 0.750660
vt 0.499400 0.910533
vt 0.424923 0.750660
vt 0.441526 0.910533
vt 0.425070 0.910533
vt 0.574930 0.750660
vt 0.575077 0.910533
vt 0.485796 0.616886
vt 0.491346 0.701833
vt 0.462449 0.746528
vt 0.437304 0.724561
vt 0.431753 0.639613
vt 0.460650 0.594919
s 0
usemtl CuelloPCTextura
f 28/55/19 27/56/19 26/57/19
f 35/58/20 34/59/20 33/60/20
f 31/61/21 33/62/21 34/63/21 37/64/21 26/65/21 27/66/21 30/67/21
f 30/68/22 27/56/22 28/55/22 29/69/22
f 31/70/23 30/68/23 29/69/23 32/71/23
f 33/60/24 31/70/24 32/71/24 35/58/24
f 37/72/25 34/59/25 36/73/25 25/74/25
f 26/57/26 37/75/26 25/76/26 28/55/26
f 35/58/27 36/73/27 34/59/27
f 29/77/28 28/78/28 25/79/28 36/80/28 35/81/28 32/82/28
o Mball
v 1.388841 0.127772 -1.182903
v 1.710403 0.127772 -0.935443
v 1.545599 0.164427 -0.935443
v 1.388841 0.164427 -1.056077
v 1.388841 0.180544 -0.935443
v 1.388841 0.197488 -0.661089
v 1.710403 0.164427 -0.661089
v 1.388841 0.197488 -0.386734
v 1.710403 0.164427 -0.386734
v 1.745351 0.158030 -0.386734
v 1.745351 0.158030 -0.661089
v 1.847946 0.127772 -0.661089
v 1.847946 0.127772 -0.386734
v 1.847946 0.091117 -0.386734
v 1.847946 0.091117 -0.661089
v 1.745351 0.060859 -0.386734
v 1.745351 0.060859 -0.661089
v 1.745351 0.091117 -0.887566
v 1.710403 0.091117 -0.935443
v 1.545599 0.054463 -0.935443
v 1.710403 0.054463 -0.661089
v 1.745351 0.127772 -0.887565
v 1.388841 0.054463 -1.056077
v 1.388841 0.091117 -1.182903
v 1.032331 0.060859 -1.209798
v 1.032331 0.054463 -1.182903
v 1.326627 0.091117 -1.209798
v 1.326626 0.127772 -1.209798
v 1.032331 0.091117 -1.288750
v 0.675820 0.060859 -1.209798
v 0.675820 0.091117 -1.288750
v 1.032331 0.127772 -1.288750
v 0.675820 0.127772 -1.288750
v 0.675820 0.158030 -1.209798
v 1.032331 0.158030 -1.209798
v 1.032331 0.164427 -1.182903
v 0.675820 0.164427 -1.182903
v 0.675820 0.197488 -0.935443
v 1.032331 0.197488 -0.935443
v 1.032331 0.201081 -0.887565
v 0.675820 0.201081 -0.887565
v 0.675820 0.211630 -0.661089
v 1.032331 0.211630 -0.661089
v 0.675820 0.211630 -0.386734
v 1.032331 0.211630 -0.386734
v 1.032331 0.201081 -0.160257
v 0.675820 0.201081 -0.160257
v 0.675820 0.197488 -0.112379
v 1.032331 0.197488 -0.112379
v 1.032331 0.164427 0.135081
v 0.675820 0.164427 0.135081
v 0.675820 0.158030 0.161975
v 1.032331 0.158030 0.161975
v 1.032331 0.127772 0.240927
v 0.675820 0.127772 0.240927
v 0.675820 0.091117 0.240927
v 1.032331 0.091117 0.240927
v 0.675820 0.060859 0.161975
v 1.032331 0.060859 0.161975
v 1.032331 0.054463 0.135081
v 0.675820 0.054463 0.135081
v 0.675820 0.021401 -0.112379
v 1.032331 0.021401 -0.112379
v 1.032331 0.017808 -0.160257
v 0.675820 0.017808 -0.160257
v 0.675820 0.007260 -0.386734
v 1.032331 0.007260 -0.386734
v 1.032331 0.007260 -0.661089
v 0.675820 0.007260 -0.661089
v 1.032331 0.017808 -0.887566
v 0.675820 0.017808 -0.887566
v 0.675820 0.021401 -0.935443
v 1.032331 0.021401 -0.935443
v 0.675820 0.054463 -1.182903
v 1.326627 0.017808 -0.661089
v 1.388841 0.021401 -0.661089
v 1.388841 0.038346 -0.935443
v 1.388841 0.021401 -0.386734
v 1.326627 0.017808 -0.386734
v 1.710403 0.054463 -0.386734
v 0.381525 0.017808 -0.661089
v 0.381525 0.017808 -0.386734
v 0.319310 0.021401 -0.386734
v 0.319310 0.021401 -0.661089
v -0.002252 0.054463 -0.661089
v -0.002252 0.054463 -0.386734
v -0.037200 0.060859 -0.386734
v -0.037200 0.060859 -0.661089
v 0.162552 0.054463 -0.935443
v -0.002252 0.091117 -0.935443
v -0.037200 0.091117 -0.887565
v -0.002252 0.127772 -0.935443
v -0.037200 0.127772 -0.887565
v -0.037200 0.158030 -0.661089
v 0.162552 0.164427 -0.935443
v -0.002252 0.164427 -0.661089
v 0.319310 0.127772 -1.182903
v 0.319310 0.164427 -1.056077
v 0.319310 0.180544 -0.935443
v -0.037200 0.158030 -0.386734
v -0.002252 0.164427 -0.386734
v 0.319310 0.197488 -0.386734
v 0.319310 0.197488 -0.661089
v 0.319310 0.180544 -0.112379
v 0.162552 0.164427 -0.112379
v 0.381525 0.201081 -0.661089
v 0.381525 0.201081 -0.386734
v -0.002252 0.127772 -0.112379
v -0.037200 0.127772 -0.160257
v -0.037200 0.091117 -0.160257
v -0.002252 0.091117 -0.112379
v -0.139794 0.091117 -0.386734
v -0.139794 0.127772 -0.386734
v -0.139794 0.091117 -0.661089
v -0.139794 0.127772 -0.661089
v 0.319310 0.127772 0.135081
v 0.319310 0.164427 0.008255
v 0.319310 0.091117 -1.182903
v 0.319310 0.054463 -1.056077
v 0.319310 0.038346 -0.935443
v 0.381525 0.091117 -1.209798
v 0.162552 0.054463 -0.112379
v 0.319310 0.054463 0.008255
v 0.319310 0.091117 0.135081
v 0.319310 0.038346 -0.112379
v 1.388841 0.054463 0.008255
v 1.388841 0.038346 -0.112379
v 1.545599 0.054463 -0.112379
v 1.388841 0.091117 0.135081
v 1.710403 0.091117 -0.112379
v 1.388841 0.127772 0.135081
v 1.710403 0.127772 -0.112379
v 1.388841 0.164427 0.008255
v 1.545599 0.164427 -0.112379
v 1.388841 0.180544 -0.112379
v 1.326626 0.091117 0.161975
v 1.326626 0.127772 0.161975
v 1.745351 0.091117 -0.160257
v 0.381525 0.091117 0.161975
v 0.381525 0.127772 0.161975
v 1.326626 0.201081 -0.386734
v 1.326626 0.201081 -0.661089
v 0.381525 0.127772 -1.209798
v 1.745351 0.127772 -0.160257
vn 0.2699 0.8301 -0.4879
vn 0.3720 0.8590 -0.3517
vn 0.1440 0.9809 -0.1310
vn 0.1006 0.9774 -0.1858
vn 0.0715 0.9931 -0.0929
vn 0.0733 0.9968 -0.0304
vn 0.1422 0.9889 -0.0422
vn 0.0745 0.9967 0.0316
vn 0.1371 0.9898 0.0395
vn 0.2177 0.9742 0.0589
vn 0.2237 0.9727 -0.0614
vn 0.5219 0.8455 -0.1130
vn 0.5219 0.8455 0.1130
vn 0.5219 -0.8455 0.1130
vn 0.5219 -0.8455 -0.1130
vn 0.2237 -0.9727 0.0614
vn 0.2177 -0.9742 -0.0589
vn 0.4275 -0.8688 -0.2500
vn 0.3846 -0.8503 -0.3593
vn 0.1435 -0.9809 -0.1311
vn 0.1371 -0.9898 -0.0395
vn 0.3924 0.8876 -0.2411
vn 0.1005 -0.9773 -0.1864
vn 0.2647 -0.8404 -0.4729
vn 0.0465 -0.9571 -0.2860
vn 0.0323 -0.9825 -0.1836
vn 0.1783 -0.8532 -0.4901
vn 0.1834 0.8282 -0.5296
vn 0.0799 -0.7776 -0.6237
vn -0.0457 -0.9576 -0.2843
vn -0.0799 -0.7776 -0.6237
vn 0.0799 0.7776 -0.6237
vn -0.0799 0.7776 -0.6237
vn -0.0486 0.9612 -0.2716
vn 0.0446 0.9594 -0.2785
vn 0.0302 0.9837 -0.1771
vn -0.0329 0.9830 -0.1807
vn -0.0234 0.9952 -0.0950
vn 0.0243 0.9950 -0.0967
vn 0.0239 0.9977 -0.0630
vn -0.0217 0.9980 -0.0596
vn -0.0171 0.9996 -0.0222
vn 0.0171 0.9996 -0.0222
vn -0.0171 0.9996 0.0222
vn 0.0171 0.9996 0.0222
vn 0.0239 0.9977 0.0630
vn -0.0214 0.9979 0.0614
vn -0.0227 0.9949 0.0986
vn 0.0242 0.9950 0.0966
vn 0.0323 0.9825 0.1836
vn -0.0323 0.9825 0.1836
vn -0.0465 0.9571 0.2860
vn 0.0465 0.9571 0.2860
vn 0.0799 0.7776 0.6237
vn -0.0799 0.7776 0.6237
vn -0.0799 -0.7776 0.6237
vn 0.0799 -0.7776 0.6237
vn -0.0446 -0.9594 0.2785
vn 0.0446 -0.9594 0.2785
vn 0.0302 -0.9837 0.1771
vn -0.0302 -0.9837 0.1771
vn -0.0233 -0.9951 0.0956
vn 0.0243 -0.9950 0.0967
vn 0.0239 -0.9977 0.0630
vn -0.0214 -0.9980 0.0600
vn -0.0171 -0.9996 0.0222
vn 0.0171 -0.9996 0.0222
vn 0.0171 -0.9996 -0.0222
vn -0.0171 -0.9996 -0.0222
vn 0.0239 -0.9977 -0.0630
vn -0.0239 -0.9977 -0.0630
vn -0.0242 -0.9950 -0.0966
vn 0.0242 -0.9950 -0.0966
vn -0.0319 -0.9827 -0.1826
vn 0.0485 -0.9983 -0.0310
vn 0.0745 -0.9967 -0.0316
vn 0.0711 -0.9932 -0.0923
vn 0.0733 -0.9968 0.0304
vn 0.0459 -0.9985 0.0282
vn 0.1422 -0.9889 0.0422
vn -0.0485 -0.9983 -0.0310
vn -0.0472 -0.9985 0.0278
vn -0.0760 -0.9967 0.0296
vn -0.0745 -0.9967 -0.0316
vn -0.1422 -0.9889 -0.0422
vn -0.1371 -0.9898 0.0395
vn -0.2177 -0.9742 0.0589
vn -0.2237 -0.9727 -0.0614
vn -0.1440 -0.9809 -0.1310
vn -0.3720 -0.8590 -0.3517
vn -0.3924 -0.8876 -0.2411
vn -0.3846 0.8503 -0.3593
vn -0.4275 0.8688 -0.2500
vn -0.2177 0.9742 -0.0589
vn -0.1435 0.9809 -0.1311
vn -0.1371 0.9898 -0.0395
vn -0.2649 0.8399 -0.4736
vn -0.1005 0.9771 -0.1876
vn -0.0715 0.9931 -0.0929
vn -0.2237 0.9727 0.0614
vn -0.1422 0.9889 0.0422
vn -0.0737 0.9968 0.0303
vn -0.0745 0.9967 -0.0316
vn -0.0718 0.9930 0.0933
vn -0.1440 0.9809 0.1310
vn -0.0485 0.9983 -0.0310
vn -0.0462 0.9985 0.0279
vn -0.3720 0.8590 0.3517
vn -0.3924 0.8876 0.2411
vn -0.4275 -0.8688 0.2500
vn -0.3846 -0.8503 0.3593
vn -0.5219 -0.8455 0.1130
vn -0.5219 0.8455 0.1130
vn -0.5219 -0.8455 -0.1130
vn -0.5219 0.8455 -0.1130
vn -0.2647 0.8404 0.4729
vn -0.1005 0.9773 0.1864
vn -0.2825 -0.8219 -0.4947
vn -0.1004 -0.9775 -0.1857
vn -0.0711 -0.9932 -0.0923
vn -0.1879 -0.8266 -0.5305
vn -0.1435 -0.9809 0.1311
vn -0.1006 -0.9774 0.1858
vn -0.2699 -0.8301 0.4879
vn -0.0718 -0.9930 0.0933
vn 0.1006 -0.9774 0.1858
vn 0.0715 -0.9931 0.0929
vn 0.1440 -0.9809 0.1310
vn 0.2699 -0.8301 0.4879
vn 0.3720 -0.8590 0.3517
vn 0.2647 0.8404 0.4729
vn 0.3846 0.8503 0.3593
vn 0.1005 0.9773 0.1864
vn 0.1435 0.9809 0.1311
vn 0.0711 0.9932 0.0923
vn 0.1834 -0.8282 0.5296
vn 0.1783 0.8532 0.4901
vn 0.3924 -0.8876 0.2411
vn -0.1834 -0.8282 0.5296
vn -0.1783 0.8532 0.4901
vn 0.0485 0.9983 0.0310
vn 0.0459 0.9985 -0.0282
vn -0.1783 0.8532 -0.4901
vn 0.4275 0.8688 0.2500
s 1
usemtl SoporteTextura
f 41//32 40//31 39//30 38//29
f 40//31 41//32 42//33
f 44//35 40//31 42//33 43//34
f 46//37 44//35 43//34 45//36
f 48//39 44//35 46//37 47//38
f 50//41 49//40 48//39 47//38
f 52//43 49//40 50//41 51//42
f 54//45 52//43 51//42 53//44
f 55//46 52//43 54//45
f 57//48 56//47 55//46 54//45
f 58//49 57//48 54//45
f 56//47 39//30 59//50 55//46
f 61//52 56//47 57//48 60//51
f 61//52 60//51 63//54 62//53
f 64//55 61//52 62//53
f 64//55 65//56 38//29 61//52
f 66//57 64//55 62//53
f 68//59 66//57 62//53 67//58
f 70//61 69//60 66//57 68//59
f 72//63 69//60 70//61 71//62
f 74//65 73//64 72//63 71//62
f 76//67 73//64 74//65 75//66
f 78//69 77//68 76//67 75//66
f 80//71 77//68 78//69 79//70
f 82//73 80//71 79//70 81//72
f 84//75 83//74 82//73 81//72
f 86//77 83//74 84//75 85//76
f 88//79 87//78 86//77 85//76
f 90//81 87//78 88//79 89//80
f 92//83 91//82 90//81 89//80
f 94//85 91//82 92//83 93//84
f 96//87 94//85 93//84 95//86
f 98//89 97//88 96//87 95//86
f 100//91 97//88 98//89 99//90
f 102//93 101//92 100//91 99//90
f 104//95 101//92 102//93 103//94
f 106//97 105//96 104//95 103//94
f 108//99 107//98 105//96 106//97
f 110//101 107//98 108//99 109//100
f 111//102 63//54 110//101 109//100
f 113//104 112//103 107//98 110//101
f 114//105 113//104 110//101
f 116//107 112//103 113//104 115//106
f 113//104 58//49 117//108 115//106
f 118//109 108//99 106//97
f 105//96 112//103 116//107 104//95
f 119//110 118//109 106//97 103//94
f 121//112 118//109 119//110 120//111
f 123//114 122//113 121//112 120//111
f 125//116 122//113 123//114 124//115
f 127//118 126//117 122//113 125//116
f 128//119 127//118 125//116
f 130//121 129//120 127//118 128//119
f 132//123 129//120 130//121 131//122
f 133//124 132//123 131//122
f 129//120 132//123 135//126 134//125
f 135//126 132//123 136//127
f 138//129 133//124 131//122 137//128
f 140//131 133//124 138//129 139//130
f 139//130 138//129 142//133 141//132
f 144//135 143//134 140//131 139//130
f 145//136 142//133 138//129 137//128
f 146//137 145//136 137//128
f 148//139 145//136 146//137 147//138
f 146//137 150//141 149//140 147//138
f 147//138 149//140 124//115
f 150//141 152//143 151//142 149//140
f 154//145 142//133 145//136 153//144
f 150//141 146//137 137//128
f 131//122 152//143 150//141 137//128
f 130//121 152//143 131//122
f 127//118 129//120 134//125 155//146
f 126//117 127//118 155//146 156//147
f 126//117 156//147 157//148
f 158//149 67//58 111//102 156//147
f 155//146 158//149 156//147
f 151//142 128//119 125//116
f 159//150 148//139 147//138 124//115
f 123//114 159//150 124//115
f 161//152 148//139 159//150 160//151
f 160//151 159//150 162//153
f 149//140 151//142 125//116 124//115
f 122//113 126//117 157//148 121//112
f 159//150 123//114 120//111 162//153
f 116//107 101//92 104//95
f 102//93 119//110 103//94
f 164//155 163//154 97//88 100//91
f 165//156 163//154 164//155
f 165//156 167//158 166//157 163//154
f 167//158 169//160 168//159 166//157
f 169//160 171//162 170//161 168//159
f 170//161 171//162 172//163
f 168//159 174//165 173//164 166//157
f 167//158 165//156 117//108 53//44
f 175//166 167//158 53//44
f 99//90 98//89 160//151 162//153
f 163//154 166//157 173//164 96//87
f 97//88 163//154 96//87
f 95//86 176//167 161//152 160//151
f 98//89 95//86 160//151
f 176//167 177//168 153//144 161//152
f 173//164 94//85 96//87
f 93//84 176//167 95//86
f 92//83 177//168 176//167 93//84
f 91//82 174//165 90//81
f 177//168 92//83 89//80
f 168//159 170//161 87//78 90//81
f 174//165 168//159 90//81
f 89//80 88//79 154//145 153//144
f 177//168 89//80 153//144
f 154//145 88//79 85//76 141//132
f 45//36 178//169 83//74 86//77
f 172//163 45//36 86//77
f 84//75 144//135 139//130 141//132
f 85//76 84//75 141//132
f 83//74 178//169 82//73
f 144//135 84//75 81//72
f 178//169 179//170 80//71 82//73
f 79//70 143//134 144//135 81//72
f 78//69 143//134 79//70
f 78//69 75//66 136//127 140//131
f 143//134 78//69 140//131
f 75//66 74//65 135//126 136//127
f 65//56 69//60 72//63
f 70//61 180//171 71//62
f 158//149 180//171 70//61 68//59
f 158//149 68//59 67//58
f 62//53 63//54 111//102 67//58
f 51//42 175//166 53//44
f 117//108 58//49 54//45 53//44
f 51//42 50//41 181//172 175//166
f 49//40 59//50 48//39
f 181//172 50//41 47//38
f 171//162 46//37 45//36 172//163
f 43//34 179//170 178//169 45//36
f 179//170 43//34 42//33 76//67
f 77//68 179//170 76//67
f 42//33 41//32 73//64 76//67
f 38//29 39//30 56//47 61//52
f 60//51 57//48 114//105
f 39//30 40//31 44//35 48//39
f 59//50 39//30 48//39
f 59//50 49//40 52//43 55//46
f 114//105 57//48 58//49 113//104
f 171//162 169//160 181//172 47//38
f 46//37 171//162 47//38
f 181//172 169//160 167//158 175//166
f 115//106 117//108 165//156 164//155
f 41//32 38//29 65//56 72//63
f 73//64 41//32 72//63
f 69//60 65//56 64//55 66//57
f 63//54 60//51 114//105 110//101
f 179//170 77//68 80//71
f 107//98 112//103 105//96
f 87//78 170//161 172//163 86//77
f 173//164 174//165 91//82 94//85
f 116//107 115//106 164//155 100//91
f 101//92 116//107 100//91
f 74//65 71//62 180//171 134//125
f 135//126 74//65 134//125
f 134//125 180//171 158//149 155//146
f 156//147 111//102 109//100 157//148
f 136//127 132//123 133//124 140//131
f 151//142 152//143 130//121 128//119
f 109//100 108//99 118//109 121//112
f 157//148 109//100 121//112
f 142//133 154//145 141//132
f 153//144 145//136 148//139 161//152
f 119//110 102//93 99//90 162//153
f 120//111 119//110 162//153
o Cube.003
v -0.231369 -0.049582 1.831558
v -0.231369 0.020794 1.831558
v -0.231369 -0.049582 1.081787
v -0.231369 0.020794 1.081787
v 1.906203 -0.049582 1.831558
v 1.906203 0.020794 1.831558
v 1.906203 -0.049582 1.081787
v 1.906203 0.020794 1.081787
vn -1.0000 -0.0000 -0.0000
vn -0.0000 -0.0000 -1.0000
vn 1.0000 -0.0000 -0.0000
vn -0.0000 -0.0000 1.0000
vn -0.0000 -1.0000 -0.0000
vn -0.0000 1.0000 -0.0000
vt 0.514706 0.611483
vt 0.577099 0.611483
vt 0.575932 0.681328
vt 0.514706 0.681328
vt 0.375000 0.250000
vt 0.620322 0.250000
vt 0.625000 0.500000
vt 0.375000 0.500000
vt 0.514706 0.751174
vt 0.577099 0.751174
vt 0.577099 0.821019
vt 0.514706 0.821019
vt 0.577099 0.890864
vt 0.514706 0.890864
vt 0.452313 0.751174
vt 0.452313 0.821019
vt 0.994717 0.484455
vt 0.609551 0.486321
vt 0.608115 0.260072
vt 0.993281 0.261163
s 0
usemtl TexturaTeclado
f 182/83/173 183/84/173 185/85/173 184/86/173
f 184/87/174 185/88/174 189/89/174 188/90/174
f 188/91/175 189/92/175 187/93/175 186/94/175
f 186/94/176 187/93/176 183/95/176 182/96/176
f 184/97/177 188/91/177 186/94/177 182/98/177
f 189/99/178 185/100/178 183/101/178 187/102/178
o Cube.004
v 3.565977 0.044309 -1.945893
v 3.661672 3.004676 -2.171007
v 4.639187 0.044309 -2.116538
v 4.639039 3.004673 -2.116433
v 3.490458 0.044309 0.903331
v 3.490458 3.004676 0.903332
v 4.467998 0.044308 0.957783
v 4.467976 3.004588 0.957903
vn -0.0565 -0.0370 -0.9977
vn 0.9985 -0.0000 0.0556
vn -0.0557 -0.0000 0.9984
vn -0.9990 0.0146 -0.0416
vn -0.0000 -1.0000 -0.0000
vn -0.0000 1.0000 -0.0000
vt 0.402622 0.345550
vt 0.405382 0.884160
vt 0.243582 0.886155
vt 0.243433 0.342430
vt 0.508083 0.573874
vt 0.758083 0.573874
vt 0.758083 0.823874
vt 0.508083 0.823874
vt 0.183564 0.343776
vt 0.181795 0.879620
vt 0.021191 0.884157
vt 0.020530 0.347161
vt 0.473176 0.704727
vt 0.723176 0.704727
vt 0.723176 0.954727
vt 0.473176 0.954727
vt 0.125000 0.500000
vt 0.375000 0.500000
vt 0.375000 0.750000
vt 0.125000 0.750000
vt 0.592275 0.667161
vt 0.842275 0.667161
vt 0.842275 0.917161
vt 0.592275 0.917161
s 0
usemtl TexturaCPU
f 190/103/179 191/104/179 193/105/179 192/106/179
f 192/107/180 193/108/180 197/109/180 196/110/180
f 196/111/181 197/112/181 195/113/181 194/114/181
f 194/115/182 195/116/182 191/117/182 190/118/182
f 192/119/183 196/120/183 194/121/183 190/122/183
f 197/123/184 193/124/184 191/125/184 195/126/184
o Cube.005
v 4.465248 0.454069 -1.786598
v 4.465248 2.531519 -1.786598
v 4.762125 0.454069 -1.770064
v 4.762125 2.531519 -1.770064
v 4.336833 0.454069 0.519212
v 4.336833 2.531519 0.519212
v 4.633709 0.454069 0.535746
v 4.633709 2.531519 0.535746
vn 0.0556 -0.0000 -0.9985
vn 0.9985 -0.0000 0.0556
vn -0.0556 -0.0000 0.9985
vn -0.9985 -0.0000 -0.0556
vn -0.0000 -1.0000 -0.0000
vn -0.0000 1.0000 -0.0000
vt 0.481824 0.641572
vt 0.518176 0.641572
vt 0.518176 0.685709
vt 0.481824 0.685709
vt 0.518176 0.729846
vt 0.481824 0.729846
vt 0.518176 0.773983
vt 0.481824 0.773983
vt 0.518176 0.818120
vt 0.481824 0.818120
vt 0.445473 0.729846
vt 0.445473 0.773983
vt 0.554527 0.729846
vt 0.554527 0.773983
s 0
usemtl TexturaCPU2
f 198/127/185 199/128/185 201/129/185 200/130/185
f 200/130/186 201/129/186 205/131/186 204/132/186
f 204/132/187 205/131/187 203/133/187 202/134/187
f 202/134/188 203/133/188 199/135/188 198/136/188
f 200/137/189 204/132/189 202/134/189 198/138/189
f 205/131/190 201/139/190 199/140/190 203/133/190
